<svg width="372" height="77" viewBox="0 0 372 77" fill="none" xmlns="http://www.w3.org/2000/svg">
<path fill-rule="evenodd" clip-rule="evenodd" d="M42.8777 0.0354288C42.8777 0.0548692 43.0617 0.15734 43.2865 0.262991C43.8387 0.522529 43.8414 0.743278 43.2916 0.667969C42.8929 0.613282 42.5273 0.679052 42.6344 0.786156C42.6647 0.816498 43.0428 0.893533 43.4746 0.957305C44.6649 1.13309 44.8061 1.42179 43.6867 1.39054C43.0986 1.37418 43.0644 1.3839 43.1496 1.54315C43.2303 1.69386 43.1847 1.72956 42.75 1.85592C42.1409 2.03298 41.3399 2.03816 40.5896 1.87001C39.9317 1.72266 38.7898 1.63954 38.7898 1.7391C38.7898 1.86455 38.9623 1.91306 39.7621 2.01236C40.2191 2.06904 40.6196 2.16852 40.6975 2.24464C40.8175 2.36192 40.7767 2.37418 40.3545 2.34711C39.967 2.3224 39.8803 2.34257 39.9015 2.45258C39.916 2.52753 40.0774 2.65916 40.2603 2.74528C40.8673 3.03116 40.7931 3.11892 40.0062 3.04561C39.6119 3.00891 39.2077 2.93523 39.1078 2.88182C38.81 2.72266 37.9064 2.56268 37.7752 2.6459C37.6776 2.70776 37.6772 2.72275 37.7728 2.72393C37.838 2.72466 38.0629 2.80178 38.2725 2.89526C38.482 2.98865 38.7149 3.08767 38.7898 3.11519C38.8647 3.14263 38.7933 3.16843 38.6308 3.17233C38.4684 3.17624 38.3356 3.21585 38.3356 3.26027C38.3356 3.3046 38.4684 3.36619 38.6308 3.39699C38.8263 3.43405 38.976 3.54088 39.074 3.71321C39.2 3.93469 39.298 3.98292 39.7327 4.03725C40.1451 4.08876 40.2433 4.13318 40.2433 4.26844C40.2433 4.41161 40.3451 4.44432 40.9473 4.49446C41.3345 4.52662 41.9032 4.60702 42.2111 4.67306C42.7631 4.79143 43.6843 5.16943 43.6916 5.28062C43.701 5.42588 43.1473 5.55823 42.8963 5.47066C42.7233 5.41034 42.5824 5.41071 42.4733 5.47175C42.2998 5.56886 41.6693 5.42978 41.4419 5.24419C41.3766 5.19096 40.9883 5.13609 40.5789 5.12219C40.0397 5.10384 39.9377 5.11565 40.2088 5.1647C40.6069 5.23683 41.0609 5.4871 41.0609 5.63436C41.0609 5.68314 40.8815 5.72312 40.6622 5.72312C40.3382 5.72312 40.2658 5.75291 40.2761 5.88209C40.2839 5.98047 40.2147 6.05151 40.0941 6.06877C39.9571 6.0883 39.9123 6.14499 39.9423 6.26018C39.9796 6.40253 39.9043 6.43078 39.3647 6.47739C38.8129 6.52508 38.7268 6.51027 38.5852 6.34385C38.4597 6.19632 38.3637 6.16934 38.131 6.2163C37.2721 6.38972 36.7437 6.38018 36.396 6.18496C36.0293 5.97893 35.8828 5.99973 35.8828 6.25773C35.8828 6.34594 35.7829 6.51209 35.6607 6.62682C35.4885 6.7887 35.3816 6.82105 35.1838 6.77108C35.0436 6.73565 34.4479 6.71122 33.86 6.71685C33.2719 6.72239 32.7201 6.68978 32.6336 6.64435C32.3581 6.49973 31.7041 6.42315 31.7041 6.53552C31.7041 6.59148 31.7552 6.65298 31.8176 6.67215C31.8801 6.69132 32.3094 6.82114 32.7715 6.96067C33.6256 7.21848 33.9048 7.42833 33.2556 7.32459C33.0597 7.29325 32.8328 7.29325 32.7512 7.3245C32.6175 7.37582 32.6194 7.39663 32.7708 7.5378C32.8632 7.62373 32.9982 7.71757 33.0709 7.74619C33.2799 7.82849 32.8102 7.81768 32.1734 7.72566C31.857 7.67988 31.3383 7.51718 31.0208 7.36411C30.4582 7.09276 29.7964 6.99247 29.7964 7.17851C29.7964 7.22957 29.9088 7.31587 30.0462 7.37037C31.035 7.76218 31.1587 7.83822 30.9978 7.95577C30.857 8.05878 30.8685 8.07631 31.1137 8.13155C31.5392 8.2273 32.371 8.56169 32.5217 8.69741C32.6375 8.80179 32.5966 8.81096 32.2491 8.75891L31.8403 8.69759L32.0415 8.89136C32.1865 9.03117 32.4396 9.11129 32.9499 9.1787C33.803 9.29134 34.3369 9.4882 34.4136 9.71839C34.4465 9.81705 34.2686 9.82931 33.4661 9.78389C32.8837 9.75092 32.5312 9.76082 32.6075 9.80797C32.7149 9.87428 32.7167 9.91262 32.6182 10.0313C32.5198 10.1498 32.5209 10.1744 32.6241 10.1747C32.6926 10.1748 32.9327 10.3341 33.1576 10.5287L33.5664 10.8825L32.9305 10.8354C32.5807 10.8095 32.2557 10.7524 32.2083 10.7085C32.1608 10.6645 31.9768 10.6285 31.7995 10.6283C31.6221 10.6281 31.3432 10.5463 31.1796 10.4466C30.8575 10.2503 30.614 10.2113 30.614 10.3561C30.614 10.4061 30.6446 10.447 30.6821 10.447C30.7196 10.4471 30.869 10.5493 31.0142 10.6742C31.1594 10.7991 31.332 10.9012 31.3978 10.9012C31.5835 10.9012 32.373 11.2941 32.4909 11.4451C32.5753 11.5534 32.5545 11.6078 32.3865 11.718C32.1767 11.8557 32.1769 11.8558 32.6199 12.0767C33.03 12.2813 33.1137 12.3972 32.8548 12.4021C32.7965 12.4033 32.7608 12.4748 32.7755 12.5611C32.8095 12.7607 32.8116 12.7609 31.8397 12.492C31.3904 12.3677 30.93 12.2655 30.8167 12.2649C30.6417 12.264 30.1819 12.0702 29.5024 11.7112C29.2322 11.5685 29.0513 11.6088 29.1115 11.7983C29.1608 11.9539 29.1316 11.9625 28.7769 11.897C28.2361 11.7971 27.6342 11.7613 27.5703 11.8251C27.5408 11.8547 27.7909 12.0165 28.1262 12.1849C28.5418 12.3936 28.6813 12.5015 28.5651 12.5241C28.4694 12.5427 28.7199 12.6663 29.137 12.8062C29.9098 13.0655 30.3414 13.2952 30.3414 13.4469C30.3414 13.5732 30.1418 13.5568 29.7649 13.3994C29.3727 13.2355 28.7071 13.2094 28.8616 13.3639C28.9171 13.4194 29.1808 13.5203 29.4475 13.5879C30.2991 13.8042 30.912 13.9851 30.9621 14.0352C30.9888 14.0619 30.9656 14.1287 30.9105 14.1839C30.8375 14.2568 30.6811 14.253 30.3341 14.1698C29.9021 14.0661 29.8466 14.0708 29.7381 14.2192C29.6281 14.3696 29.5665 14.3737 28.9857 14.2699C28.5643 14.1946 28.3001 14.1864 28.1946 14.2456C28.0865 14.306 27.9041 14.2942 27.6217 14.2084C27.1052 14.0516 27.0711 14.0515 27.0711 14.2065C27.0711 14.3053 26.9473 14.3223 26.4931 14.2859C25.8197 14.2318 25.6726 14.3433 25.9956 14.6629C26.2657 14.93 26.6434 15.123 27.1619 15.2588C27.9641 15.4689 28.5462 15.8067 28.1062 15.8067C27.8664 15.8067 26.8527 15.5251 26.7314 15.4248C26.6694 15.3736 26.3525 15.3103 26.0273 15.2843C25.4691 15.2394 25.4359 15.2477 25.4359 15.4309C25.4359 15.5376 25.4882 15.625 25.552 15.625C25.6159 15.625 25.7381 15.7068 25.8237 15.8067C25.9706 15.9784 25.9705 15.9883 25.8211 15.9862C25.7342 15.9849 25.4824 15.9423 25.2617 15.8915C24.7102 15.7643 24.5261 15.8442 24.8264 16.0805C24.9526 16.1797 25.084 16.2609 25.1186 16.2609C25.3183 16.2609 25.7993 16.5772 25.7993 16.7086C25.7993 16.8105 26.0334 16.9788 26.4865 17.203C26.8758 17.3954 27.1581 17.5898 27.1378 17.6513C27.118 17.711 26.9321 17.7829 26.7247 17.8112C26.5174 17.8393 26.3187 17.8915 26.2833 17.9269C26.1324 18.0778 26.6411 18.3489 27.6162 18.6371C27.9377 18.7322 28.3429 19.0405 28.3429 19.1902C28.3429 19.235 28.2779 19.3368 28.1984 19.4163C28.0662 19.5484 28.0759 19.5706 28.3119 19.6749C28.4538 19.7377 28.5166 19.7923 28.4513 19.7964C28.2774 19.8072 27.4952 19.6077 27.3882 19.5252C27.2121 19.3894 25.6912 19.1488 25.598 19.242C25.5397 19.3003 25.6063 19.3526 25.7903 19.393C25.9452 19.4271 26.0718 19.4878 26.0718 19.5279C26.0718 19.5681 26.162 19.6245 26.2722 19.6534C26.4988 19.7126 26.4179 19.8492 26.1562 19.8492C25.8588 19.8492 25.9655 20.0227 26.4043 20.2525C26.7932 20.4562 26.8119 20.481 26.6356 20.5597C26.4552 20.6402 26.4636 20.6554 26.7767 20.8151C26.9597 20.9084 27.152 20.9861 27.2038 20.9878C27.3064 20.991 27.707 21.3024 27.707 21.3788C27.707 21.4047 27.472 21.4048 27.1847 21.3792C26.6922 21.3351 26.6758 21.34 26.8979 21.4638C27.0274 21.536 27.2875 21.624 27.4758 21.6594C27.8011 21.7203 27.8154 21.7375 27.762 22.0047C27.731 22.1593 27.6242 22.3429 27.5247 22.4126C27.1716 22.6599 27.2931 22.7818 28.3606 23.2503C28.5952 23.3533 28.8609 23.4389 28.9511 23.4406C29.0413 23.4423 29.2786 23.5226 29.4784 23.6192C29.6783 23.7158 29.8879 23.7961 29.9443 23.7978C30.0006 23.7995 30.0953 23.8596 30.1549 23.9313C30.2144 24.003 30.383 24.088 30.5294 24.1202C30.6758 24.1524 30.7957 24.2086 30.7957 24.2451C30.7957 24.2817 31.0103 24.3655 31.2726 24.4313C31.5348 24.4972 31.7904 24.5815 31.8403 24.6188C31.8903 24.6559 32.1356 24.7141 32.3854 24.7481C32.6352 24.782 33.0236 24.8655 33.2484 24.9337C33.4732 25.0018 33.8207 25.0851 34.0206 25.1187C34.2204 25.1523 34.4248 25.2117 34.4748 25.2507C34.5247 25.2896 34.719 25.3709 34.9063 25.4313C35.0937 25.4917 35.2469 25.5711 35.2469 25.6079C35.2469 25.6446 35.39 25.7309 35.5649 25.7994C35.7398 25.868 35.8828 25.9574 35.8828 25.9981C35.8828 26.0387 35.9544 26.0738 36.0418 26.076C36.1292 26.0781 36.3643 26.1421 36.5642 26.218C36.764 26.2941 37.1115 26.4115 37.3363 26.4792C37.9629 26.6677 39.1717 27.1163 39.4257 27.2545C39.5506 27.3225 39.8487 27.3904 40.0879 27.4055C40.3273 27.4204 40.7565 27.5389 41.0418 27.6687C41.3271 27.7984 41.6831 27.9583 41.833 28.0239C41.9829 28.0896 42.338 28.2495 42.6222 28.3794C42.9063 28.5093 43.1822 28.6156 43.2354 28.6156C43.2885 28.6156 43.3319 28.6475 43.3319 28.6865C43.3319 28.7255 43.4444 28.8081 43.5818 28.87C43.9607 29.0408 44.3712 29.2719 44.422 29.3431C44.447 29.3782 44.6139 29.4545 44.7929 29.5128C46.2198 29.9778 47.7834 31.3962 48.61 32.9757C48.7798 33.3002 48.9452 33.5863 48.9775 33.6116C49.0098 33.6367 49.0854 33.8413 49.1453 34.0662C49.2054 34.291 49.2885 34.5166 49.33 34.5673C49.3715 34.6182 49.4749 35.1503 49.5597 35.7498C49.7025 36.7583 49.7032 36.9078 49.5693 37.7469C49.445 38.5253 49.1247 39.5496 48.959 39.6984C48.9312 39.7234 48.8547 39.8767 48.789 40.0391C48.7234 40.2014 48.6337 40.3343 48.5898 40.3343C48.5458 40.3343 48.51 40.3812 48.51 40.4384C48.51 40.4958 48.3573 40.7717 48.1706 41.0516C47.8157 41.5842 47.73 41.732 47.2836 42.582C47.1337 42.8674 46.9497 43.1636 46.8748 43.2403C46.536 43.587 46.0729 44.2332 45.8701 44.6426C45.6514 45.0839 45.3902 45.4215 45.2676 45.4215C45.233 45.4215 44.9975 45.6388 44.7444 45.9045C44.4913 46.17 44.2159 46.4255 44.1325 46.4722C44.0492 46.5189 43.6932 46.8362 43.3416 47.1772C42.5393 47.9553 41.3576 48.8736 41.1586 48.8736C41.0757 48.8736 40.8256 49.0603 40.6028 49.2884C40.2039 49.6969 38.9656 50.5996 38.804 50.5996C38.7585 50.5996 38.6736 50.6569 38.6155 50.727C38.5574 50.797 38.3995 50.882 38.2646 50.9158C38.1298 50.9497 37.9987 51.0065 37.9731 51.042C37.909 51.1316 36.6101 51.757 35.0061 52.4708C34.8487 52.5408 34.6913 52.5982 34.6565 52.5982C34.6216 52.5982 34.4642 52.6551 34.3068 52.7248C34.0453 52.8405 33.2864 53.0742 31.9766 53.4424C31.7018 53.5197 31.2521 53.6108 30.9773 53.6449C30.7025 53.679 30.3551 53.7605 30.2052 53.826C29.8212 53.9939 22.6422 54.3209 19.1678 54.3289L18.2139 54.3311L18.6682 54.478C19.0542 54.6029 19.7428 54.6286 23.2557 54.6495C25.529 54.663 27.4197 54.6771 27.4572 54.6808C27.6279 54.6976 27.5012 54.9626 27.2982 55.0136C27.1733 55.0449 27.0711 55.1023 27.0711 55.141C27.0711 55.3032 26.8601 55.3263 22.9378 55.5933C22.1383 55.6478 21.0702 55.7524 20.5642 55.8258C20.0581 55.8993 19.1792 55.9604 18.6111 55.9617C18.0429 55.963 16.9444 56.0042 16.17 56.0533C15.1827 56.1158 14.3247 56.1115 13.2987 56.0388C11.8296 55.9347 10.6567 55.9882 10.9093 56.1478C10.9797 56.1925 11.1666 56.2053 11.3247 56.1763C11.4828 56.1474 11.7076 56.1562 11.8243 56.1958C11.984 56.25 11.834 56.2946 11.2191 56.376C10.2532 56.5038 9.14785 56.6984 9.08563 56.7517C9.06137 56.7724 9.13877 56.8627 9.25768 56.9524C9.57318 57.1904 9.43719 57.2955 8.72089 57.3674C8.37078 57.4026 8.0641 57.4641 8.03939 57.504C8.01468 57.5439 7.73888 57.6062 7.42657 57.6425C6.455 57.755 6.50987 57.8215 7.57655 57.8242C8.57382 57.8266 8.60743 57.8333 8.83045 58.074C9.03521 58.2948 9.12351 58.3213 9.65712 58.3213C9.98569 58.3213 10.2784 58.36 10.3076 58.4072C10.3564 58.4861 9.82608 58.6829 9.56119 58.6841C9.49878 58.6844 9.44763 58.7493 9.44763 58.8284C9.44763 58.9495 9.54393 58.9653 10.0608 58.9287C10.3981 58.9049 10.9061 58.8402 11.1898 58.7847C11.7588 58.6738 12.1729 58.7646 12.1729 59.0003C12.1729 59.1121 12.0416 59.1389 11.4916 59.1389C11.1169 59.1389 10.8103 59.1735 10.8103 59.2157C10.8103 59.3324 12.8231 59.4106 15.833 59.411C18.451 59.4114 18.5478 59.4177 18.8008 59.6048C19.0841 59.8143 19.4385 59.7896 19.6849 59.5432C19.7788 59.4493 20.0327 59.4114 20.5685 59.4114C21.2579 59.4114 21.3278 59.4281 21.4104 59.6134C21.4861 59.783 21.5612 59.8111 21.8785 59.7881C22.1623 59.7677 22.2564 59.794 22.2564 59.8939C22.2564 60.0505 21.9911 60.1054 20.8237 60.191C19.0916 60.3179 19.9797 60.4046 22.7296 60.377C24.767 60.3565 25.6494 60.3158 25.8447 60.2332C26.2021 60.0819 29.4721 59.9808 29.5571 60.1184C29.6117 60.2067 29.5437 60.297 29.2318 60.5511C29.1676 60.6034 28.7676 60.7344 28.3429 60.8423C27.7283 60.9984 27.1816 61.05 25.663 61.095C23.3134 61.1647 23.5269 61.1626 22.7107 61.1241C22.1711 61.0987 21.9826 61.125 21.8047 61.251C21.6404 61.3672 21.4025 61.4099 20.919 61.4099C20.3697 61.4099 20.2579 61.4348 20.2579 61.5573C20.2579 61.678 20.2826 61.6842 20.3941 61.5917C20.5011 61.5029 20.5867 61.502 20.7937 61.5878C21.0549 61.696 22.036 61.6746 22.8704 61.5427C23.1349 61.5009 23.429 61.533 23.8015 61.6446C24.386 61.8197 24.4978 61.988 24.0966 62.0887C23.9594 62.1231 23.7978 62.1924 23.7373 62.2425C23.3721 62.5456 22.3159 62.964 21.4843 63.135C21.1845 63.1965 20.8983 63.278 20.8484 63.3159C20.7984 63.3538 20.6084 63.4117 20.4261 63.4445C20.2437 63.4772 19.978 63.5606 19.8356 63.6295C19.6931 63.6985 19.3109 63.7824 18.9861 63.816C18.6613 63.8496 18.2526 63.913 18.0777 63.9569C17.9028 64.0009 17.2079 64.0796 16.5334 64.132C15.8589 64.1843 14.9186 64.2712 14.444 64.3251C13.7385 64.4052 13.5149 64.3994 13.2191 64.2932L12.857 64.1634L13.1282 64.0087L13.3993 63.854L12.9905 63.9008C12.7657 63.9266 12.1116 64.0174 11.537 64.1025C10.9624 64.1876 10.1244 64.2605 9.67474 64.2644C9.22507 64.2683 8.80556 64.3048 8.74251 64.3457C8.67947 64.3865 7.96408 64.4553 7.15277 64.4985C6.34145 64.5418 5.53459 64.6102 5.35971 64.6505L5.04177 64.7238L5.45056 64.7729L5.85935 64.8219L5.37797 64.9327C5.11317 64.9938 4.39442 65.0437 3.7806 65.0437C3.16686 65.0437 2.63771 65.0706 2.60473 65.1036C2.57175 65.1366 2.62735 65.2214 2.72828 65.2922C2.8292 65.3629 2.90051 65.4889 2.88671 65.5723C2.86563 65.699 2.98273 65.7349 3.60255 65.7916C4.01007 65.8288 4.44947 65.8996 4.5791 65.9489C4.84327 66.0493 4.89605 66.2246 4.66213 66.2246C4.57829 66.2246 4.37389 66.2737 4.20792 66.3337C3.98963 66.4127 3.90623 66.4985 3.90623 66.6444C3.90623 66.794 3.83683 66.8613 3.63743 66.9051C3.48963 66.9376 3.16441 67.0627 2.91469 67.1832C2.66505 67.3036 2.28524 67.4282 2.07067 67.4601C1.8561 67.492 1.63971 67.5672 1.58975 67.6273C1.53978 67.6875 1.41714 67.7836 1.31722 67.8409C1.16133 67.9303 1.19676 67.9455 1.56704 67.9479C1.98319 67.9505 2.1437 68.0824 1.86227 68.1903C1.78733 68.2191 1.72601 68.2952 1.72601 68.3594C1.72601 68.5032 1.52334 68.5865 1.17351 68.5865C1.00754 68.5865 0.908426 68.6339 0.908426 68.7131C0.908426 68.8716 0.710662 68.9499 0.3105 68.9499C0.0855738 68.9499 0 68.9902 0 69.0963C0 69.2117 0.0623181 69.2314 0.295239 69.1896C1.16233 69.0337 1.32058 69.0306 1.4989 69.1666C1.67396 69.3001 1.66633 69.3108 1.28897 69.4614C0.988004 69.5815 0.929411 69.6358 1.03624 69.6956C1.15715 69.7632 1.15198 69.7965 0.996362 69.9521C0.733463 70.215 0.769891 70.3374 1.09011 70.2671C1.37145 70.2054 1.49209 70.3687 1.22638 70.4516C0.774252 70.5929 0.792602 70.5731 0.959298 70.7397C1.0446 70.8251 1.0783 70.9036 1.03415 70.9142C0.990003 70.9248 0.800505 70.9592 0.613188 70.9905C0.404976 71.0254 0.272528 71.098 0.272528 71.1774C0.272528 71.2683 0.347382 71.2951 0.522345 71.2668C0.659699 71.2445 1.54887 71.1833 2.49817 71.1308C6.19583 70.9261 7.32301 70.8453 7.58536 70.7661C8.20645 70.5785 11.4791 70.4179 11.5734 70.5704C11.6299 70.6618 10.8393 70.8551 10.3719 70.864C10.1883 70.8675 9.95635 70.9039 9.85643 70.9447C9.75332 70.9869 9.99905 70.9981 10.4242 70.9708C10.9625 70.9361 11.1736 70.9524 11.1736 71.0286C11.1736 71.0869 11.0613 71.1746 10.9238 71.2233C10.7864 71.272 10.5923 71.363 10.4923 71.4254C10.3684 71.5029 9.84843 71.5417 8.85716 71.5477C7.47344 71.5559 5.2994 71.6633 2.81612 71.8459C2.19158 71.8918 1.64598 71.9082 1.60374 71.8824C1.5614 71.8565 1.54178 71.9118 1.55995 72.0051C1.58493 72.1335 1.68104 72.1786 1.95475 72.1902C2.1537 72.1986 2.39725 72.2088 2.4959 72.2129C2.60137 72.2173 2.45175 72.33 2.13253 72.4867C1.69085 72.7035 1.62181 72.7655 1.76207 72.8195C1.85691 72.856 2.06131 72.8348 2.21629 72.7725C2.37136 72.7101 2.88534 72.6361 3.35845 72.608L4.21873 72.5567L4.07447 72.7746C3.97291 72.9279 3.7389 73.0462 3.28442 73.1741C2.92931 73.274 2.58665 73.4121 2.52297 73.481C2.42541 73.5865 2.48545 73.5976 2.90696 73.5516C3.6774 73.4674 3.82611 73.6805 3.17459 73.9349L2.95239 74.0217L3.24762 74.1291C3.52469 74.23 3.65315 74.4005 3.45202 74.4005C3.40206 74.4005 3.36118 74.4615 3.36118 74.5359C3.36118 74.6506 3.50362 74.663 4.29231 74.6172C4.87571 74.5832 5.31675 74.5996 5.47327 74.6612C5.9035 74.8303 5.75688 74.9455 5.1099 74.9468C4.4204 74.9482 4.06575 75.018 4.1397 75.1376C4.16713 75.1818 4.28923 75.2181 4.41123 75.2181C4.5682 75.2181 4.63297 75.2683 4.63297 75.3901C4.63297 75.5887 4.46446 75.6718 4.05776 75.6736C3.66968 75.6752 3.36118 75.7645 3.36118 75.8751C3.36118 75.9251 3.46846 75.9455 3.59955 75.9205C3.78232 75.8855 3.84873 75.9165 3.88452 76.0535C3.92086 76.1922 3.97409 76.216 4.12317 76.1604C4.32138 76.0865 5.68566 76.0661 7.58536 76.1089C9.7555 76.1578 16.0164 75.9676 16.3517 75.8427C16.5461 75.7702 17.0955 75.7229 17.7656 75.721C18.697 75.7182 18.886 75.742 19.0235 75.8791C19.2647 76.1193 19.1402 76.3435 18.803 76.2761C18.6538 76.2462 18.4194 76.2669 18.2821 76.3219C18.1446 76.377 17.603 76.4159 17.0784 76.4086C15.8222 76.391 13.9579 76.7608 14.1806 76.9835C14.2522 77.0552 16.8203 76.8765 17.3467 76.7632C17.7751 76.671 17.8563 76.6761 17.9472 76.8004C18.005 76.8794 18.1091 76.9442 18.1785 76.9444C18.3545 76.9446 19.4943 76.6802 19.9788 76.5266C20.2001 76.4565 20.6477 76.399 20.9737 76.399C21.6818 76.399 22.6461 76.1407 22.5762 75.9696C22.5502 75.906 22.5042 75.7927 22.4738 75.7177C22.4332 75.6173 22.4811 75.5815 22.6555 75.5815C22.8909 75.5815 23.2557 75.3036 23.2557 75.1244C23.2557 74.9511 23.5116 74.9305 23.7471 75.0847C23.9994 75.2501 23.9716 75.271 24.1159 74.8093C24.1435 74.7207 24.2787 74.6717 24.502 74.669C24.9219 74.6642 25.2415 74.5949 26.7532 74.1805C27.4027 74.0024 28.1794 73.7924 28.4792 73.7137C29.0442 73.5654 29.4714 73.404 29.9236 73.1681C30.0685 73.0925 30.375 73.0065 30.6049 72.9771C30.8347 72.9476 31.1582 72.8422 31.3236 72.7427C31.5157 72.6272 31.8444 72.5478 32.2321 72.5231C32.8663 72.4828 33.7935 72.2364 33.7935 72.1083C33.7935 72.0675 33.8854 71.9935 33.9979 71.9438C34.1103 71.8942 34.3977 71.7322 34.6365 71.5837C34.8753 71.4354 35.1792 71.2867 35.3118 71.2534C35.4443 71.2202 35.6577 71.1381 35.7859 71.0713C35.9142 71.0043 36.06 70.9499 36.1099 70.9504C36.1599 70.9507 36.4665 70.87 36.7913 70.7709C37.116 70.6717 37.6883 70.5023 38.0631 70.3944C38.4378 70.2865 38.8466 70.1444 38.9715 70.0786C39.8236 69.6301 41.3458 68.9558 41.6237 68.9037C41.81 68.8687 42.0699 68.7253 42.2129 68.5785C42.3537 68.4341 42.6324 68.2708 42.8323 68.2156C43.0322 68.1605 43.257 68.0648 43.3319 68.003C43.5018 67.8629 44.2394 67.5873 44.4446 67.5873C44.5286 67.5873 44.7836 67.524 45.0112 67.4467C45.5703 67.257 45.6839 67.3631 45.2656 67.6844C45.0765 67.8296 44.8808 67.9809 44.8308 68.0205C44.7809 68.0602 44.5152 68.2089 44.2404 68.3511C43.3893 68.7914 42.4585 69.2974 41.9724 69.584C41.7165 69.7349 41.4859 69.8583 41.46 69.8583C41.4095 69.8583 40.5833 70.2234 40.0616 70.4763C39.7751 70.6151 39.2607 70.9242 39.0135 71.1062C38.5176 71.471 36.362 72.3111 35.9217 72.3111H35.6888L35.8767 72.0473C36.1477 71.6666 36.1127 71.6489 35.6739 71.945C35.2721 72.2162 34.7486 72.4354 34.1114 72.5993C33.9116 72.6508 33.6192 72.7501 33.4618 72.8199C33.3044 72.8899 33.1159 72.947 33.0429 72.947C32.8543 72.947 31.6359 73.3455 31.2044 73.5484C30.7884 73.744 30.7736 73.7537 30.3294 74.1248C30.1479 74.2764 29.9538 74.4005 29.8979 74.4005C29.8421 74.4005 29.7964 74.4324 29.7964 74.4713C29.7964 74.5102 29.4653 74.5942 29.0605 74.6579C28.6558 74.7215 27.9506 74.8915 27.4934 75.0356C27.0363 75.1797 26.5806 75.3193 26.4806 75.3458C26.3807 75.3723 26.5238 75.3736 26.7986 75.3486C27.0734 75.3236 27.6661 75.2814 28.1158 75.2548C28.949 75.2055 29.9306 75.0063 30.344 74.8025C30.5539 74.6989 31.0605 74.6432 31.5981 74.6646C31.9961 74.6804 31.7415 74.8859 31.1825 74.9999C30.4365 75.152 29.7964 75.4426 29.7964 75.629C29.7964 75.7481 29.855 75.766 30.0916 75.719C30.5349 75.631 31.622 75.3091 31.9312 75.1743C32.0811 75.109 32.3462 75.0254 32.5203 74.9886C32.6944 74.9518 32.9225 74.8657 33.0269 74.7973C33.1314 74.7288 33.4922 74.6549 33.8288 74.6329C34.1842 74.6096 34.6192 74.5111 34.8666 74.3977C35.5881 74.0668 35.6378 74.0528 36.2717 74.002C36.6106 73.9748 36.9774 73.8899 37.0869 73.8132C37.1963 73.7365 37.3483 73.6735 37.4247 73.6732C37.501 73.6728 37.6805 73.6115 37.8236 73.5369C38.1219 73.3813 38.4264 73.3587 38.4264 73.4921C38.4264 73.542 38.3876 73.5829 38.3403 73.5829C38.2929 73.5829 38.1396 73.6909 37.9997 73.8229L37.7451 74.063L38.1169 74.0059C38.453 73.9542 38.8221 73.8192 39.6665 73.4392C39.824 73.3683 39.9926 73.3104 40.0411 73.3104C40.0896 73.3104 40.3082 73.232 40.527 73.1362C40.7456 73.0404 41.1232 72.9329 41.3659 72.8973L41.8072 72.8326L41.6384 73.0907C41.5456 73.2326 41.5105 73.3265 41.5605 73.2992C41.6105 73.272 41.8542 73.1569 42.102 73.0434C42.3499 72.93 42.7697 72.6984 43.035 72.5288C43.3001 72.3591 43.5572 72.2203 43.6062 72.2203C43.6552 72.2203 43.6953 72.1866 43.6953 72.1456C43.6953 72.0481 45.3401 71.221 45.534 71.221C45.6161 71.221 45.7056 71.1847 45.7331 71.1402C45.7605 71.0958 45.8928 71.0319 46.0271 70.9981C46.2496 70.9423 46.9947 70.5961 47.6242 70.256C47.7617 70.1817 47.8741 70.0823 47.8741 70.035C47.8741 69.9878 47.9275 69.9492 47.9927 69.9492C48.0579 69.9492 48.2381 69.8572 48.393 69.7448C49.0342 69.2796 49.2406 69.1546 49.7786 68.9064C49.9517 68.8265 50.1152 68.7321 50.142 68.6965C50.1687 68.661 50.3745 68.5439 50.5993 68.4363C50.8242 68.3286 51.1962 68.1507 51.426 68.0408C51.6558 67.9311 51.9183 67.8556 52.0093 67.8732C52.2621 67.9221 51.4249 68.7162 50.8177 69.0034C50.5475 69.1312 50.2754 69.2839 50.2131 69.3427C50.1135 69.4365 49.8492 69.6121 49.1913 70.0213C49.0914 70.0835 48.9074 70.1851 48.7825 70.2472C48.1675 70.5529 47.4332 71.1268 47.8466 70.9785C48.0393 70.9095 48.8076 70.4808 48.8733 70.4057C48.9574 70.3097 49.46 70.0032 49.9634 69.741C50.2382 69.5978 50.6127 69.392 50.7957 69.2834C50.9785 69.1749 51.362 68.95 51.6477 68.7835C51.9335 68.6171 52.2131 68.4422 52.269 68.395C52.325 68.3478 52.565 68.1838 52.8023 68.0305C53.0396 67.8772 53.2338 67.7148 53.2338 67.6696C53.2338 67.6243 53.2773 67.5873 53.3304 67.5873C53.4679 67.5873 54.1746 66.9722 55.3658 65.8158C55.9319 65.2662 57.0327 64.2034 57.8121 63.4539C58.5915 62.7044 59.3047 61.9482 59.3971 61.7733C59.5175 61.5456 59.6267 61.4554 59.7821 61.4554C60.0685 61.4554 60.1171 61.7246 59.8869 62.036C59.7892 62.1683 59.6802 62.3676 59.6448 62.4791C59.6095 62.5905 59.5382 62.6817 59.4864 62.6817C59.4345 62.6817 59.1512 62.928 58.8566 63.2291C58.481 63.613 58.321 63.847 58.321 64.0124C58.321 64.2118 58.342 64.2308 58.4572 64.1352C58.5322 64.073 58.5941 63.9761 58.5949 63.9197C58.5957 63.8633 58.9227 63.4755 59.3216 63.0577C59.7206 62.64 60.047 62.2619 60.047 62.2174C60.047 62.173 60.1068 62.1367 60.1801 62.1367C60.3384 62.1367 60.4541 61.9318 60.5343 61.5094C60.616 61.0796 60.7455 60.9557 61.1129 60.9557C61.4227 60.9557 61.4286 60.9489 61.3732 60.6538C61.3235 60.3889 61.3614 60.3046 61.6811 59.9686C62.0808 59.5483 62.1809 59.2417 61.8626 59.412C61.7495 59.4726 61.6241 59.4788 61.5336 59.4281C61.406 59.3567 61.4144 59.3274 61.6005 59.1972C61.7176 59.1151 61.8779 59.048 61.9568 59.048C62.1948 59.048 62.318 58.8498 62.318 58.467C62.318 58.1293 62.5688 57.6306 62.931 57.2475C62.9935 57.1815 63.0694 57.0283 63.0999 56.9068C63.1651 56.6469 63.2736 56.624 63.3968 56.8443C63.5124 57.0509 63.5872 56.9654 63.6898 56.5091C63.7358 56.3041 63.9059 55.9412 64.0678 55.7027C64.5315 55.0192 64.5847 54.9323 64.7249 54.6278C64.7977 54.47 64.8888 54.3269 64.9275 54.3098C64.9662 54.2927 65.0669 54.1561 65.1514 54.0062C65.6708 53.0841 65.981 52.5931 66.1799 52.3786C66.3042 52.2443 66.406 52.0803 66.406 52.0141C66.406 51.9479 66.4622 51.847 66.5309 51.79C66.5996 51.733 66.6813 51.5337 66.7126 51.3473C66.7437 51.1609 66.8288 50.9062 66.9017 50.7813C66.9745 50.6564 67.0768 50.4593 67.1291 50.3432C67.1878 50.213 67.2849 50.1446 67.3828 50.1646C67.636 50.2162 67.5739 51.173 67.2767 51.8015C67.1475 52.0743 67.0419 52.3415 67.0419 52.3949C67.0419 52.4484 67.0063 52.5058 66.963 52.5225C66.9196 52.5391 66.6877 52.9206 66.4477 53.3703C66.2076 53.82 65.8828 54.3719 65.726 54.5967C65.5691 54.8215 65.4119 55.0668 65.3765 55.1418C65.3412 55.2167 65.2129 55.4415 65.0916 55.6414C64.7667 56.1766 64.6665 56.4293 64.722 56.5739C64.7522 56.6525 64.7003 56.7215 64.5895 56.7505C64.4894 56.7767 64.4074 56.8343 64.4074 56.8784C64.4074 56.9225 64.3516 56.9586 64.2834 56.9586C64.0748 56.9586 63.6807 57.3242 63.6807 57.5177C63.6807 57.6181 63.5342 57.879 63.355 58.0977C63.0378 58.4848 63.0114 58.6846 63.2773 58.6846C63.3493 58.6846 63.4082 58.6253 63.4082 58.5529C63.4082 58.4804 63.4593 58.3885 63.5217 58.3485C63.5842 58.3085 63.7113 58.1328 63.8043 57.9579C63.8973 57.783 64.1454 57.4764 64.3556 57.2766C64.7876 56.8661 65.4975 55.9478 65.4975 55.7996C65.4975 55.746 65.5289 55.6884 65.5672 55.6716C65.6055 55.655 65.757 55.3348 65.9036 54.9601C66.0503 54.5853 66.2438 54.1813 66.3336 54.0621C66.4233 53.9429 66.4996 53.7794 66.5032 53.6987C66.5066 53.618 66.7093 53.1841 66.9536 52.7344C67.1979 52.2847 67.4657 51.7833 67.5489 51.6201C67.7834 51.1594 67.8248 51.2006 67.7833 51.8532C67.7482 52.4037 67.7581 52.4474 67.8923 52.3361C67.9734 52.2688 68.0841 52.0491 68.1382 51.848C68.2391 51.4735 68.5949 50.8428 68.7644 50.738C68.8166 50.7058 68.9389 50.5045 69.0363 50.2906C69.1337 50.0769 69.3584 49.6817 69.5357 49.4126C69.7129 49.1434 69.858 48.8963 69.858 48.8635C69.858 48.8308 69.7705 48.7811 69.6637 48.7531C69.492 48.7083 69.4754 48.6567 69.5215 48.313C69.5502 48.0989 69.6172 47.9091 69.6704 47.8914C69.7236 47.8737 69.7671 47.7888 69.7671 47.7029C69.7671 47.4452 70.242 46.5733 70.5012 46.3553C70.6341 46.2434 70.7672 46.0305 70.7969 45.8822C70.8265 45.734 70.9904 45.4163 71.161 45.1764C71.3315 44.9365 71.502 44.638 71.5397 44.5131C71.5774 44.3882 71.7294 44.132 71.8775 43.9438C72.0358 43.7427 72.1677 43.4456 72.1975 43.2232C72.2311 42.973 72.3281 42.7745 72.4839 42.6371C72.8108 42.3491 72.8544 42.3688 72.8651 42.8098C72.8737 43.1666 72.8794 43.1753 72.9402 42.9234C72.9763 42.7735 73.0486 42.5691 73.1006 42.4691C73.1527 42.3692 73.2226 42.1359 73.256 41.9506C73.2895 41.7654 73.3763 41.4997 73.4491 41.3601C73.5218 41.2207 73.5819 41.0043 73.5825 40.8794C73.5832 40.7545 73.6448 40.5352 73.7193 40.3921C73.794 40.2489 73.8569 39.9015 73.8591 39.6199C73.8612 39.3383 73.9266 38.9444 74.0043 38.7446C74.1864 38.2763 74.4052 37.3113 74.3433 37.2495C74.3171 37.2232 74.2558 37.2729 74.2071 37.3599C73.9517 37.8163 73.8624 37.2633 74.0652 36.4814C74.1497 36.1555 74.1564 35.9154 74.0901 35.5918C74.0152 35.2263 74.0258 35.1055 74.1502 34.9026C74.2332 34.7674 74.3581 34.6673 74.4279 34.6803C74.5746 34.7075 74.6414 34.0549 74.7231 31.7951C74.7675 30.5663 74.7496 30.2829 74.5826 29.5694C74.4773 29.1198 74.3372 28.3839 74.271 27.9343C74.0566 26.475 73.858 25.3994 73.7259 24.9819C73.6548 24.757 73.5694 24.4095 73.536 24.2097C73.5027 24.0098 73.4438 23.8054 73.4053 23.7555C73.3667 23.7055 73.3087 23.4629 73.2766 23.2163C73.2444 22.9698 73.1599 22.6793 73.089 22.571C73.0179 22.4626 72.9318 22.2245 72.8975 22.0417C72.8632 21.859 72.7989 21.6871 72.7547 21.6597C72.7103 21.6324 72.6683 21.5204 72.6612 21.4109C72.6541 21.3014 72.6235 21.3754 72.5931 21.5752C72.5507 21.8538 72.4931 21.945 72.3462 21.966C72.193 21.9878 72.0984 21.8834 71.8735 21.444C71.7189 21.1418 71.5638 20.7411 71.5288 20.5536C71.494 20.366 71.3617 20.0491 71.235 19.8492C71.1082 19.6494 70.8892 19.2494 70.7483 18.9603C70.6074 18.6713 70.4337 18.4124 70.3623 18.385C70.2909 18.3576 70.1246 18.1288 69.9928 17.8767C69.8609 17.6246 69.6336 17.3178 69.4876 17.1949C69.1847 16.9401 69.1517 16.7652 69.3811 16.6316C69.5119 16.5553 69.4857 16.5384 69.2334 16.5362C68.9443 16.5336 68.9298 16.5185 68.9794 16.2711C69.0374 15.9806 68.9234 15.8395 68.4272 15.5882C68.0948 15.4198 68.0389 15.1782 68.3157 15.1058C68.4682 15.0659 68.4139 15.0042 67.9973 14.7436C67.6739 14.5413 67.4115 14.2867 67.2599 14.028C67.1305 13.8072 66.9691 13.6265 66.9012 13.6265C66.8334 13.6265 66.7108 13.4853 66.629 13.3127C66.547 13.1401 66.4225 12.9511 66.3522 12.8928C66.1839 12.7532 66.1894 12.6272 66.3637 12.6272C66.5522 12.6272 66.9374 12.8748 67.2734 13.2121C68.0532 13.995 68.069 13.8001 67.2913 12.9902C66.9793 12.6652 66.6418 12.2941 66.5414 12.1654C66.441 12.0368 66.1487 11.7806 65.8918 11.596C65.5345 11.3393 65.4358 11.2183 65.4717 11.0809C65.5119 10.9274 65.4728 10.9012 65.2043 10.9012C64.8026 10.9012 64.4074 10.5766 64.4074 10.2467C64.4074 10.0532 64.3461 9.98656 64.0895 9.9019C63.9146 9.84421 63.7701 9.74901 63.7683 9.69041C63.763 9.51963 63.3847 9.13046 63.1086 9.01182C62.9689 8.95177 62.6772 8.90262 62.4605 8.90262C62.1419 8.90262 62.0383 8.85975 61.9197 8.6787C61.839 8.5556 61.773 8.43732 61.773 8.41589C61.773 8.3126 62.079 8.27826 62.2386 8.36365C62.3375 8.41661 62.4878 8.44541 62.5726 8.42761C62.6845 8.40426 62.6237 8.3294 62.3516 8.15508C62.0153 7.93969 61.7312 7.71185 61.3188 7.32695C61.2438 7.257 60.8964 7.01427 60.5466 6.78752C60.1969 6.56078 59.7868 6.25918 59.6354 6.11728C59.2833 5.78743 58.8079 5.45059 58.6945 5.45059C58.6461 5.45059 58.5513 5.39953 58.4839 5.33703C58.4166 5.27462 58.2249 5.12673 58.058 5.00845C57.8124 4.8344 57.7394 4.81705 57.6757 4.91761C57.6324 4.98592 57.5964 5.07241 57.5956 5.10992C57.5918 5.29815 57.3177 5.13672 57.0946 4.81468C56.9561 4.61483 56.8167 4.45131 56.7849 4.45131C56.7531 4.45131 56.5098 4.30823 56.2443 4.13336C55.9788 3.95849 55.7038 3.81541 55.6332 3.81541C55.4515 3.81541 55.4736 3.99155 55.6638 4.05987C55.7512 4.0913 55.8893 4.18205 55.9706 4.26145C56.0519 4.34094 56.2257 4.4832 56.3567 4.57758C56.6717 4.8046 56.6644 4.99637 56.3406 4.99637C56.2007 4.99637 56.0452 5.03743 55.9948 5.08776C55.9336 5.14899 55.8397 5.11955 55.7098 4.99846C55.6031 4.89917 55.3292 4.77608 55.1011 4.72493C54.8729 4.67388 54.6095 4.55524 54.5157 4.4614C54.4116 4.35729 54.2612 4.30596 54.13 4.32967C53.9609 4.36029 53.8668 4.29524 53.688 4.02389C53.2383 3.34139 52.9534 3.14553 52.6268 3.29442C52.4623 3.36937 52.3809 3.35747 52.2504 3.23937C52.1588 3.15643 52.0207 3.08867 51.9433 3.08867C51.8659 3.08867 51.7553 3.0318 51.6976 2.96221C51.6399 2.89272 51.5109 2.81441 51.411 2.78825C51.2509 2.74637 51.2323 2.77998 51.255 3.0705C51.3067 3.73447 50.6589 3.43996 50.4987 2.72666C50.4034 2.30242 50.1973 1.99855 50.0049 1.99855C49.9432 1.99855 49.8985 2.06968 49.9054 2.15652C49.9124 2.24346 49.826 2.35538 49.7136 2.40516C49.5619 2.47248 49.5092 2.57231 49.5092 2.79224C49.5092 3.02508 49.4714 3.08867 49.3329 3.08867C49.079 3.08867 49.0311 2.95667 49.101 2.44858C49.1404 2.16243 49.2075 1.99855 49.2853 1.99855C49.5159 1.99855 49.5363 1.79261 49.3217 1.63082C49.1405 1.4941 49.0821 1.48783 48.9369 1.58948C48.6223 1.80987 48.4811 2.0814 48.6041 2.22956C48.7667 2.42551 48.3871 2.40789 48.1896 2.21021C48.0647 2.0853 48.0489 1.95576 48.1003 1.47602C48.1614 0.905251 48.1588 0.895531 47.9729 0.995004C47.8686 1.05078 47.7832 1.17542 47.7832 1.2718C47.7832 1.36819 47.7015 1.49083 47.6015 1.54433C47.4605 1.61982 47.4199 1.73456 47.4199 2.05687C47.4199 2.37954 47.3909 2.46112 47.29 2.42242C47.2186 2.39499 47.0084 2.34412 46.8229 2.30932C46.5339 2.25509 46.4616 2.27707 46.3176 2.46294C46.2103 2.60138 46.1245 2.64499 46.0806 2.58349C46.0428 2.53043 45.8719 2.44804 45.7009 2.40044C45.241 2.27226 45.2456 2.10565 45.71 2.07222C46.0059 2.05087 46.1089 2.00291 46.1332 1.87518C46.1613 1.72675 46.1175 1.71148 45.7705 1.74864C45.5535 1.7718 45.243 1.84657 45.0805 1.9147C44.8082 2.0288 44.7692 2.02271 44.5834 1.83685C44.4151 1.66861 44.4068 1.63518 44.5331 1.63518C44.6164 1.63518 44.7392 1.5228 44.8059 1.38536C44.8949 1.20185 44.9926 1.13645 45.1742 1.13908C45.3101 1.14108 45.4213 1.11047 45.4213 1.07095C45.4213 1.03152 45.3446 0.999274 45.2507 0.999274C45.157 0.999274 45.0307 0.939681 44.9702 0.866734C44.8796 0.757541 44.9016 0.723838 45.0954 0.675237C45.3614 0.608467 45.3999 0.500273 45.1868 0.418514C44.9065 0.310956 44.6777 0.363009 44.6301 0.545059C44.5589 0.816861 44.3271 0.766988 43.7861 0.363372C43.5183 0.163518 43.2043 0 43.0884 0C42.9726 0 42.8777 0.0158975 42.8777 0.0354288ZM37.0638 0.908431C36.9627 0.973838 37.0166 0.996821 37.2735 0.997911C37.4814 0.998729 37.5971 0.963028 37.5634 0.908431C37.4925 0.793605 37.2415 0.793605 37.0638 0.908431ZM40.4688 1.08766C40.5528 1.22347 41.2406 1.38281 41.4818 1.32231C41.8235 1.23656 41.7326 1.11973 41.2753 1.05705C40.6772 0.97511 40.4056 0.985375 40.4688 1.08766ZM38.5173 1.17051C38.5173 1.26826 39.4761 1.39835 39.6058 1.31822C39.8369 1.17542 39.6506 1.09012 39.1078 1.09012C38.783 1.09012 38.5173 1.12627 38.5173 1.17051ZM35.9737 2.80987C36.2485 2.90298 36.6368 2.99773 36.8367 3.02044C37.0365 3.04315 37.1285 3.04452 37.0411 3.02344C36.9537 3.00236 36.8821 2.95367 36.8821 2.91525C36.8821 2.77526 36.4081 2.63454 35.9467 2.63745L35.474 2.64054L35.9737 2.80987ZM38.0461 3.15071C38.1116 3.17696 38.19 3.17369 38.2201 3.14353C38.2503 3.11337 38.1967 3.09194 38.1009 3.09584C37.9951 3.1002 37.9736 3.12173 38.0461 3.15071ZM53.8697 3.13291C53.8697 3.15734 54.0379 3.28343 54.2435 3.41325C54.4999 3.57504 54.6467 3.61982 54.7109 3.5556C54.775 3.49146 54.7301 3.44341 54.5679 3.40271C54.4378 3.3701 54.2837 3.28607 54.2257 3.21603C54.1262 3.09621 53.8697 3.03634 53.8697 3.13291ZM35.3378 5.45049C35.2312 5.51944 35.255 5.53898 35.4469 5.54007C35.5819 5.54079 35.9277 5.60275 36.2154 5.67769C36.5032 5.75264 36.9037 5.81323 37.1056 5.81241L37.4726 5.81087L37.2001 5.64172C36.8845 5.44586 35.5558 5.30942 35.3378 5.45049ZM38.6863 5.63527C38.871 5.78916 39.3349 5.88909 39.3349 5.77499C39.3349 5.63654 39.0035 5.45104 38.7606 5.45358L38.4719 5.45667L38.6863 5.63527ZM39.5771 5.51118C39.4531 5.63509 39.5228 5.73483 39.7139 5.70676C39.9635 5.66997 40.0473 5.45059 39.8118 5.45059C39.716 5.45059 39.6104 5.47784 39.5771 5.51118ZM34.7019 5.76536C34.7019 5.78852 34.7845 5.85175 34.8855 5.9058C35.1002 6.02081 35.3373 5.92706 35.1431 5.80397C35.0126 5.7213 34.7019 5.69405 34.7019 5.76536ZM28.7369 6.83058C28.9198 6.89726 29.024 6.89517 29.0958 6.82341C29.1699 6.74928 29.1014 6.7243 28.838 6.72957C28.4832 6.73665 28.4821 6.73774 28.7369 6.83058ZM26.3044 11.8916C26.2163 12.0342 26.8054 12.1895 26.9571 12.0637C27.0702 11.9698 27.0651 11.9451 26.9209 11.8884C26.6811 11.7941 26.3637 11.7957 26.3044 11.8916ZM27.3436 12.2498C27.5185 12.289 27.7509 12.3695 27.86 12.4287C27.9692 12.4879 28.1327 12.5331 28.2233 12.5292C28.3513 12.5236 28.3578 12.5104 28.2521 12.4701C28.1771 12.4416 28.0923 12.3825 28.0636 12.3387C28.0348 12.2949 27.7895 12.2409 27.5185 12.2188C27.1368 12.1877 27.0974 12.1946 27.3436 12.2498ZM68.4701 14.3842C68.5181 14.4762 68.6966 14.7145 68.867 14.9138C69.26 15.3737 69.8442 16.0047 69.6449 15.7541C69.5622 15.6503 69.4946 15.5161 69.4946 15.456C69.4946 15.3959 69.4333 15.3232 69.3583 15.2945C69.2834 15.2657 69.2207 15.1955 69.2191 15.1384C69.2174 15.0812 69.0287 14.8506 68.7995 14.6257C68.5704 14.4009 68.4221 14.2922 68.4701 14.3842ZM70.1305 16.21C70.1305 16.2327 70.2327 16.4435 70.3576 16.6784C70.4825 16.9133 70.5847 17.1608 70.5847 17.2283C70.5847 17.2958 70.6229 17.351 70.6695 17.351C70.7161 17.351 70.7801 17.4328 70.8118 17.5327C70.8435 17.6326 70.9472 17.7144 71.0422 17.7144C71.2401 17.7144 71.1969 17.509 70.9466 17.2587C70.8632 17.1753 70.7171 16.9413 70.6218 16.7387C70.4789 16.4348 70.1305 16.0599 70.1305 16.21ZM72.1741 20.3871C72.2054 20.5331 72.3104 20.7532 72.4072 20.8763C72.6461 21.18 72.6284 21.0818 72.3502 20.5593C72.1727 20.2261 72.1307 20.1851 72.1741 20.3871ZM24.6602 20.431C24.8582 20.5357 25.0579 20.6214 25.1041 20.6214C25.1502 20.6214 25.2827 20.7236 25.3985 20.8485C25.5222 20.982 25.7094 21.0756 25.8526 21.0756H26.0964L25.8653 20.8939C25.7383 20.794 25.5953 20.7122 25.5474 20.7122C25.4996 20.7122 25.3608 20.6338 25.239 20.538C25.1172 20.4421 24.8562 20.336 24.659 20.3023L24.3004 20.2407L24.6602 20.431ZM73.8761 22.6199C73.8761 22.7948 73.8948 22.8664 73.9176 22.7789C73.9405 22.6914 73.9405 22.5484 73.9176 22.461C73.8948 22.3735 73.8761 22.4451 73.8761 22.6199ZM74.1165 23.5284C74.0901 23.6033 74.1194 23.8281 74.1818 24.028C74.2871 24.365 74.2952 24.3716 74.2932 24.1188C74.2903 23.7308 74.1778 23.3549 74.1165 23.5284ZM74.418 25.4785C74.3278 25.6765 74.3363 25.7671 74.4682 26.0082L74.6272 26.2991L74.6543 25.978C74.6691 25.8014 74.6466 25.563 74.6041 25.4482L74.5268 25.2396L74.418 25.4785ZM75.1359 29.9502C75.1409 30.0405 75.1777 30.2167 75.2177 30.3416C75.283 30.5456 75.2914 30.5345 75.2995 30.2334C75.3045 30.049 75.2677 29.8728 75.2177 29.842C75.1677 29.8111 75.1309 29.8598 75.1359 29.9502ZM75.2724 32.3218C75.208 32.8912 75.2667 33.1868 75.4333 33.1313C75.4959 33.1104 75.5356 32.856 75.5356 32.4764C75.5356 31.6823 75.3567 31.5772 75.2724 32.3218ZM359.691 34.044C358.877 34.0856 356.609 34.348 356.33 34.4329C356.18 34.4785 355.565 34.6377 354.963 34.7867C354.361 34.9357 353.747 35.1205 353.6 35.1972C353.453 35.274 353.263 35.3371 353.179 35.3374C353.094 35.3377 353.003 35.3743 352.975 35.4187C352.948 35.4631 352.832 35.5231 352.717 35.5518C352.431 35.6235 351.413 36.1104 350.97 36.3867C350.771 36.5115 350.546 36.6407 350.471 36.6737C349.893 36.9286 348.21 38.4936 347.7 39.2492C347.551 39.4713 347.403 39.6735 347.372 39.6984C347.341 39.7234 347.287 39.8356 347.252 39.9477C347.217 40.0598 347.14 40.2029 347.081 40.2657C346.812 40.5505 346.333 41.8711 346.068 43.0596C345.952 43.5757 345.925 44.0384 345.953 44.9673C346.01 46.7912 346.253 47.6779 347.193 49.4894C347.666 50.4025 349.093 51.9086 350.107 52.5669C350.382 52.7451 350.709 52.9608 350.834 53.046C351.122 53.2423 351.719 53.5664 352.015 53.6865C352.14 53.7372 352.304 53.8177 352.379 53.8654C352.576 53.9913 353.102 54.2075 353.469 54.3139C353.644 54.3647 354.093 54.5125 354.468 54.6424C355.083 54.8556 355.841 55.0216 357.148 55.2291C358.017 55.367 360.335 55.4231 361.554 55.3357C363.06 55.2277 364.174 55.0237 365.187 54.6706C365.612 54.5226 366.087 54.3634 366.242 54.3167C366.397 54.2701 366.704 54.13 366.923 54.0056C367.143 53.881 367.445 53.7205 367.595 53.6488C368.346 53.2898 370.345 51.3848 370.652 50.7359C370.699 50.6359 370.837 50.3907 370.959 50.1908C371.08 49.991 371.226 49.7252 371.282 49.6003C371.339 49.4754 371.437 49.271 371.501 49.1461C371.564 49.0212 371.645 48.7834 371.681 48.6177C371.716 48.4519 371.802 48.2066 371.872 48.0726C371.942 47.9385 372 47.7563 372 47.6676C372.001 47.5189 371.891 47.5082 370.618 47.5313L369.236 47.5564L369.052 48.0106C368.951 48.2604 368.817 48.4975 368.754 48.5375C368.691 48.5774 368.639 48.6517 368.639 48.7028C368.639 48.9428 367.72 50.0207 366.913 50.7252C366.504 51.0833 365.067 51.8049 364.538 51.918C364.371 51.9539 364.189 52.0186 364.136 52.0617C364.043 52.1361 363.386 52.2972 362.282 52.5163C361.46 52.6795 358.739 52.574 357.92 52.3471C357.064 52.1099 355.899 51.6382 355.474 51.3567C355.295 51.2382 355.073 51.091 354.98 51.0295C354.656 50.8158 353.65 49.8169 353.65 49.7089C353.65 49.6492 353.616 49.6003 353.575 49.6003C353.467 49.6003 352.998 48.8419 352.671 48.1381C352.202 47.1313 352.015 46.1379 352.015 44.6566C352.015 43.7694 352.058 43.2205 352.15 42.9151C352.225 42.6698 352.286 42.3904 352.287 42.2941C352.287 42.1978 352.451 41.7812 352.651 41.3683C352.851 40.9554 353.014 40.5743 353.014 40.5214C353.014 40.4685 353.057 40.4252 353.108 40.4252C353.16 40.4252 353.231 40.3492 353.267 40.2565C353.502 39.648 354.76 38.4877 355.694 38.0163C355.844 37.9407 356.028 37.8411 356.103 37.7951C356.451 37.5812 356.923 37.4129 357.816 37.1844C358.712 36.955 358.909 36.9375 360.509 36.9465C362.007 36.9549 362.379 36.9875 363.325 37.1933C363.925 37.3236 364.497 37.4677 364.597 37.5135C364.697 37.5593 364.942 37.6657 365.142 37.75C366.087 38.1487 366.54 38.3943 366.959 38.735C367.439 39.1259 368.269 39.974 368.274 40.0781C368.275 40.1119 368.338 40.2015 368.413 40.2771C368.608 40.4721 369.161 41.5349 369.254 41.8944L369.332 42.1966H370.598H371.864L371.888 38.7219L371.912 35.2471H370.594H369.275V35.6386C369.275 36.4185 368.866 36.5314 367.954 36.0032C367.161 35.5437 364.869 34.6895 364.097 34.5655C363.872 34.5294 363.648 34.4686 363.598 34.4304C363.548 34.3923 363.261 34.3341 362.962 34.3013C362.662 34.2683 362.131 34.203 361.781 34.156C361.001 34.0514 360.291 34.0133 359.691 34.044ZM99.6089 34.2087C98.9594 34.2739 98.3053 34.3683 98.1555 34.4184C98.0056 34.4684 97.7194 34.5355 97.5196 34.5674C96.7469 34.6909 94.0842 35.606 93.9313 35.8007C93.9063 35.8325 93.7941 35.8872 93.682 35.9222C93.5699 35.9572 93.4268 36.0343 93.3641 36.0935C93.3013 36.1528 93.0685 36.3193 92.8469 36.4635C92.1721 36.9024 91.505 37.637 91.1026 38.3843C90.8632 38.8288 90.5701 39.9892 90.5701 40.4926C90.5701 41.3512 90.9862 42.6286 91.5484 43.4954C91.9519 44.1178 93.0024 44.96 93.8859 45.3696C95.1303 45.9465 95.8134 46.1259 98.0646 46.467C98.5643 46.5426 99.0344 46.6282 99.1093 46.6572C99.1843 46.6862 99.7566 46.7638 100.381 46.8299C101.006 46.8959 101.925 46.9943 102.425 47.0485C102.925 47.1027 103.722 47.188 104.196 47.238C105.386 47.3636 107.392 47.6594 108.103 47.814C109.449 48.107 110.011 48.6557 110.01 49.6744C110.008 50.9059 109.437 51.4202 107.331 52.0842C106.308 52.4065 104.102 52.6096 102.792 52.5019C101.703 52.4125 100.053 52.1685 99.8569 52.0678C99.7705 52.0236 99.5074 51.9623 99.2722 51.9317C98.3049 51.8056 96.6235 51.1029 95.7936 50.4778C94.7108 49.6624 94.0542 48.6753 93.9549 47.7139C93.8944 47.1274 93.9065 47.1316 92.387 47.1667L91.2514 47.193V50.9176V54.6421H92.7049H94.1584L94.1821 54.1879C94.2304 53.2644 94.3694 53.1324 94.9865 53.4244C95.1805 53.5161 95.4007 53.5929 95.4756 53.5949C95.5505 53.5969 95.7163 53.653 95.8441 53.7197C96.2075 53.9094 97.4554 54.3242 97.6626 54.3242C97.7654 54.3242 97.9229 54.3635 98.0127 54.4115C98.2361 54.5311 99.6895 54.8581 100.79 55.0365C101.435 55.1411 102.303 55.1842 103.788 55.1855C106.18 55.1875 107.441 55.0568 108.784 54.6684C109.284 54.5238 109.856 54.3653 110.056 54.3162C111.14 54.05 113.037 52.9534 113.811 52.1459C114.1 51.8442 114.643 51.0954 114.643 50.9989C114.643 50.9736 114.722 50.7815 114.817 50.5719C115.117 49.9139 115.238 48.8087 115.105 47.9424C115.042 47.5303 114.912 47.0215 114.817 46.8119C114.722 46.6023 114.642 46.3775 114.641 46.3123C114.64 46.247 114.559 46.0915 114.462 45.9666C114.364 45.8417 114.283 45.6871 114.282 45.6231C114.281 45.5591 114.219 45.4831 114.144 45.4544C114.069 45.4256 114.007 45.3551 114.007 45.2975C114.007 45.24 113.822 45.0298 113.595 44.8303C113.367 44.6309 113.106 44.4009 113.015 44.3193C112.833 44.1583 111.76 43.5138 111.673 43.5138C111.644 43.5138 111.452 43.4354 111.247 43.3394C110.001 42.7574 106.835 42.142 103.061 41.7481C102.411 41.6804 101.492 41.58 101.017 41.5252C100.542 41.4704 99.7861 41.3853 99.3364 41.336C97.1106 41.0922 96.1516 40.7657 95.834 40.1429C95.6068 39.6976 95.6107 39.3752 95.8485 38.9249C96.088 38.4717 96.3199 38.2167 96.6367 38.0583C96.7726 37.9904 96.945 37.8887 97.0199 37.8322C97.2792 37.6368 98.342 37.3493 99.5342 37.1521C102.031 36.7389 105.889 37.0691 107.617 37.8441C107.774 37.9146 107.934 37.9724 107.971 37.9724C108.234 37.9724 109.906 38.9457 110.238 39.2914C110.705 39.779 111.16 40.5625 111.344 41.1973L111.423 41.4699L112.625 41.4952L113.828 41.5206L113.804 38.2816L113.78 35.0427L112.509 35.0423L111.237 35.0419L111.21 35.4978C111.192 35.8032 111.126 36.0048 111.011 36.1086C110.849 36.2558 110.806 36.247 110.17 35.9371C109.802 35.7575 109.44 35.6105 109.367 35.6105C109.293 35.6105 109.153 35.5544 109.054 35.4859C108.956 35.4173 108.732 35.3308 108.557 35.2936C108.382 35.2566 108.195 35.1913 108.142 35.1486C108.036 35.0633 107.067 34.8086 105.605 34.4816C104.765 34.2938 102.43 34.0635 101.517 34.0783C101.117 34.0849 100.258 34.1435 99.6089 34.2087ZM131.813 34.2078C130.573 34.3359 130.572 34.3361 129.451 34.5979C128.518 34.8159 127.744 35.0314 127.498 35.1415C127.398 35.1862 127.071 35.3146 126.771 35.4268C126.209 35.6372 124.833 36.2966 124.273 36.6244C123.162 37.2744 121.901 38.4695 121.172 39.5653C120.777 40.1571 120.094 41.5001 120.094 41.6825C120.094 41.7274 120.018 42.0046 119.926 42.2984C119.62 43.2706 119.506 44.6538 119.64 45.7622C119.705 46.2994 119.834 46.9791 119.926 47.2729C120.018 47.5667 120.094 47.8435 120.094 47.888C120.094 48.2401 121.449 50.5996 121.651 50.5996C121.694 50.5996 121.729 50.651 121.729 50.7139C121.729 50.9 123.272 52.3056 123.94 52.7275C124.098 52.8275 124.309 52.9609 124.409 53.0238C124.509 53.0868 124.713 53.2013 124.863 53.2784C125.013 53.3554 125.197 53.4587 125.272 53.508C125.347 53.5573 125.51 53.6383 125.635 53.6881C125.76 53.738 125.924 53.8177 125.999 53.8654C126.718 54.323 129.045 54.9909 130.768 55.234C133.88 55.673 138.342 55.3048 140.229 54.4534C140.387 54.3823 140.563 54.3242 140.62 54.3242C140.867 54.3242 143.084 53.2483 143.195 53.0751C143.235 53.0127 143.309 52.9615 143.359 52.9615C143.553 52.9615 144.661 52.0975 145.322 51.4301C145.838 50.91 146.893 49.5212 146.893 49.3626C146.893 49.3308 147.032 49.0135 147.203 48.6577C147.49 48.0611 147.704 47.3848 147.898 46.4662C147.94 46.2664 147.975 45.4897 147.975 44.7402C147.975 43.3642 147.948 43.1296 147.666 42.0604C147.461 41.2821 146.622 39.56 146.37 39.3987C146.308 39.3587 146.257 39.2836 146.257 39.2316C146.257 38.9319 144.413 37.2112 143.395 36.5613C142.676 36.1018 141.319 35.4157 140.897 35.298C140.772 35.2631 140.547 35.1802 140.397 35.1137C140.023 34.9475 138.931 34.6352 138.49 34.5682C138.29 34.5378 138.024 34.4751 137.899 34.4288C137.574 34.3083 134.674 34.0639 133.739 34.0782C133.304 34.085 132.437 34.1432 131.813 34.2078ZM308.002 34.2087C307.352 34.2739 306.698 34.3683 306.548 34.4184C306.399 34.4684 306.112 34.5365 305.913 34.5698C305.033 34.716 303.628 35.197 302.506 35.7365C301.244 36.3434 300.127 37.2694 299.672 38.0862C299.191 38.9503 299.031 39.5809 299.036 40.6016C299.039 41.2886 299.081 41.638 299.183 41.8332C299.261 41.9831 299.326 42.1556 299.326 42.2166C299.326 42.2776 299.456 42.5831 299.615 42.8956C299.918 43.4918 300.895 44.5401 301.376 44.7855C301.523 44.8604 301.663 44.9477 301.688 44.9797C301.801 45.1233 303.164 45.6523 303.914 45.8434C304.568 46.0101 306.035 46.2894 306.912 46.4144C307.262 46.4642 307.854 46.5495 308.229 46.6041C308.604 46.6586 309.278 46.7414 309.728 46.7883C310.694 46.8888 312.611 47.1069 313.634 47.2325C314.034 47.2817 314.79 47.402 315.315 47.5C317.241 47.8599 317.632 48.0188 318.128 48.6424C318.381 48.9613 318.403 49.0464 318.403 49.691C318.403 50.2986 318.371 50.4396 318.165 50.7444C317.873 51.1741 317.777 51.2495 317.086 51.5873C315.684 52.2734 313.223 52.6564 311.227 52.4993C310.177 52.4168 308.43 52.1595 308.235 52.0588C308.157 52.0185 307.901 51.9576 307.666 51.9235C307.104 51.8421 305.285 51.2168 305.14 51.0554C305.115 51.0275 304.981 50.9546 304.842 50.8934C304.589 50.7822 304.465 50.6947 304.135 50.3952C304.038 50.3078 303.938 50.2362 303.911 50.2362C303.829 50.2362 302.778 49.1011 302.778 49.0127C302.778 48.9807 302.702 48.7829 302.608 48.5734C302.514 48.3638 302.408 47.9879 302.372 47.738C302.336 47.4882 302.259 47.2538 302.202 47.2171C302.144 47.1804 301.556 47.1497 300.895 47.1489C299.724 47.1476 299.692 47.1527 299.644 47.352C299.616 47.4643 299.605 49.1507 299.619 51.0992L299.644 54.6421L300.962 54.6682C302.706 54.7027 302.649 54.7221 302.612 54.1091C302.564 53.3338 302.954 53.0699 303.548 53.4752C303.647 53.5425 303.79 53.5988 303.866 53.6005C303.942 53.6022 304.168 53.6825 304.368 53.7791C304.568 53.8757 304.787 53.956 304.854 53.9577C304.922 53.9594 305.106 54.019 305.263 54.0902C305.42 54.1615 305.733 54.2623 305.958 54.3143C307.402 54.6482 307.888 54.7679 308.027 54.8238C308.567 55.0417 310.228 55.1845 312.226 55.1853C314.73 55.1861 315.85 55.0651 317.333 54.6338C317.918 54.4634 318.443 54.3242 318.5 54.3242C318.727 54.3242 320.965 53.2361 321.065 53.0769C321.105 53.0134 321.183 52.9615 321.239 52.9615C321.295 52.9615 321.405 52.9019 321.484 52.8291C321.564 52.7562 321.796 52.5525 322.001 52.3765C322.206 52.2004 322.492 51.8818 322.637 51.6686C322.781 51.4553 322.92 51.2605 322.945 51.2355C323.111 51.0707 323.424 50.0713 323.507 49.4414C323.668 48.2214 323.446 47.0554 322.837 45.9212C322.653 45.5781 321.821 44.6891 321.401 44.3871C321.074 44.1518 319.672 43.423 319.546 43.423C319.507 43.423 319.347 43.3648 319.189 43.2935C318.882 43.1547 318.396 43.0316 317.313 42.8185C316.939 42.7449 316.489 42.6453 316.314 42.5973C315.813 42.4598 312.855 42.0733 309.819 41.7488C309.169 41.6793 308.577 41.6 308.502 41.5724C308.427 41.5449 307.97 41.48 307.487 41.4284C306.394 41.3114 305.214 41.0345 304.863 40.8124C304.368 40.4991 304.141 40.0862 304.141 39.4991C304.141 39.2091 304.179 38.9717 304.226 38.9717C304.272 38.9717 304.337 38.8887 304.369 38.7872C304.448 38.5385 304.849 38.1641 305.2 38.0111C305.358 37.9423 305.501 37.8544 305.518 37.8157C305.568 37.7032 306.746 37.358 307.684 37.1812C308.352 37.0553 309.009 37.0186 310.591 37.0186C312.598 37.0186 313.356 37.0955 314.724 37.4382C314.924 37.4882 315.251 37.5685 315.451 37.6167C315.819 37.7053 315.93 37.7501 316.905 38.2035C318.46 38.9271 319.409 39.9047 319.725 41.1065L319.82 41.4699L321.021 41.4952L322.221 41.5206L322.197 38.2798L322.173 35.0392L320.947 35.0445L319.721 35.0497L319.693 35.4548C319.674 35.741 319.602 35.9197 319.449 36.0642L319.231 36.2685L318.556 35.9395C318.185 35.7586 317.858 35.6105 317.83 35.6105C317.802 35.6105 317.664 35.5633 317.524 35.5056C316.528 35.097 316.114 34.9725 314.543 34.6109C314.143 34.5188 313.734 34.4201 313.634 34.3916C313.279 34.2901 310.625 34.067 309.91 34.0784C309.51 34.0849 308.651 34.1435 308.002 34.2087ZM155.543 35.3153L150.975 35.3397L151 36.497L151.026 37.6545L152.434 37.7028C154.002 37.7566 154.22 37.8224 154.491 38.3262C154.651 38.6229 154.66 38.9747 154.66 44.9602V51.2809L154.451 51.574L154.242 51.867L152.725 51.8919L151.208 51.9168V53.0978V54.2788H156.658H162.109L162.134 53.1504C162.153 52.3087 162.13 52.0032 162.043 51.9481C161.979 51.9075 161.229 51.8736 160.376 51.8728C158.827 51.8714 158.824 51.8711 158.604 51.637L158.384 51.4027L158.359 46.1864C158.345 43.3175 158.365 40.9702 158.405 40.9702C158.444 40.9702 158.738 41.2155 159.058 41.5153C159.378 41.8151 159.652 42.0604 159.666 42.0604C159.681 42.0604 159.909 42.2599 160.174 42.5039C160.439 42.7479 160.9 43.1621 161.2 43.4244C161.5 43.6867 162.093 44.2194 162.517 44.608C162.942 44.9968 163.719 45.6947 164.243 46.159C164.768 46.6232 165.244 47.0458 165.3 47.0981C165.562 47.3396 166.796 48.4423 167.287 48.8725C167.911 49.42 169.029 50.4255 169.459 50.8267C169.62 50.9766 170.014 51.3241 170.334 51.5989C170.654 51.8737 171.044 52.2212 171.201 52.371C171.358 52.5209 171.724 52.848 172.013 53.0978C172.303 53.3476 172.707 53.7071 172.911 53.8966C173.115 54.0861 173.364 54.2612 173.464 54.2857C173.564 54.3103 174.422 54.3187 175.372 54.3045L177.098 54.2788L177.126 52.4619C177.141 51.4626 177.111 47.9674 177.06 44.6948C177.004 41.1611 176.998 38.6026 177.047 38.395C177.198 37.7439 177.298 37.7075 179.022 37.6794L180.55 37.6545L180.575 36.4976L180.601 35.3408L175.102 35.3166C172.077 35.3034 169.562 35.3062 169.512 35.3228C169.458 35.3408 169.421 35.8079 169.421 36.4713C169.421 37.4073 169.445 37.5986 169.565 37.6447C169.644 37.6751 170.358 37.6999 171.15 37.6999C172.541 37.6999 172.6 37.7075 172.824 37.9152C172.968 38.0491 173.09 38.2981 173.147 38.5738C173.196 38.8176 173.264 40.7851 173.297 42.9461C173.347 46.2908 173.337 46.8748 173.228 46.873C173.158 46.872 172.896 46.685 172.646 46.4575C172.397 46.2301 171.891 45.7711 171.523 45.4375C171.155 45.104 170.699 44.6844 170.509 44.5052C170.319 44.326 170.028 44.0654 169.861 43.9262C169.498 43.6227 167.983 42.243 167.488 41.7651C167.295 41.5778 167.12 41.4245 167.101 41.4245C167.081 41.4245 166.93 41.2916 166.765 41.1292C166.599 40.9668 166.199 40.6028 165.876 40.3203C165.553 40.0377 165.084 39.6194 164.834 39.3907C164.584 39.162 164.155 38.7691 163.88 38.5176C163.605 38.266 163.135 37.8336 162.835 37.5566C162.536 37.2796 162.067 36.8612 161.793 36.6269C161.52 36.3927 161.175 36.0783 161.027 35.9284C160.7 35.597 160.23 35.2391 160.161 35.269C160.133 35.281 158.055 35.3018 155.543 35.3153ZM182.909 35.3565C182.882 35.4271 182.872 35.973 182.886 36.5696L182.912 37.6545L184.411 37.6999C185.728 37.7398 185.955 37.7695 186.282 37.9448C186.622 38.1268 187.681 39.0615 187.681 39.1799C187.681 39.2073 187.834 39.3898 188.022 39.5854C188.454 40.0373 188.796 40.4233 189.364 41.1018C189.612 41.3989 189.938 41.7719 190.088 41.9306C190.238 42.0894 190.571 42.4594 190.828 42.7529C191.084 43.0465 191.637 43.6751 192.055 44.1497C192.474 44.6244 192.938 45.1528 193.087 45.3241C193.237 45.4953 193.42 45.7006 193.495 45.7803C193.57 45.86 193.825 46.1535 194.063 46.4326L194.494 46.9401V49.2205C194.494 52.1163 194.672 51.8714 192.569 51.8714H191.042V53.0984V54.3254L197.515 54.3021L203.987 54.2788V53.0978V51.9168L202.389 51.8921C200.199 51.8581 200.362 52.065 200.326 49.2797C200.296 46.934 200.311 46.8545 200.888 46.2911C201.045 46.1376 201.323 45.8281 201.505 45.6032C201.688 45.3784 201.953 45.0674 202.095 44.9122C202.236 44.7569 202.556 44.3971 202.806 44.1126C203.056 43.8281 203.383 43.4624 203.533 43.3C203.683 43.1377 204.008 42.7616 204.255 42.4644C204.819 41.7862 204.858 41.7422 205.327 41.2319C205.539 41.001 205.815 40.6915 205.94 40.544C206.065 40.3966 206.392 40.016 206.667 39.6984C206.942 39.3808 207.269 39.0002 207.394 38.8527C207.841 38.3244 208.08 38.1031 208.421 37.903C208.741 37.7152 208.878 37.6999 210.242 37.6999C211.269 37.6999 211.751 37.6667 211.827 37.5909C211.964 37.4537 211.981 35.3383 211.845 35.3372C211.795 35.3368 209.424 35.3364 206.576 35.3364C203.728 35.3364 201.356 35.3368 201.305 35.3372C201.244 35.3377 201.22 35.7461 201.236 36.4962L201.262 37.6545L202.191 37.6804C203.022 37.7034 203.132 37.726 203.221 37.8932C203.363 38.1581 203.269 38.4162 202.876 38.8434C202.391 39.3698 202.056 39.7546 201.54 40.3798C201.293 40.6795 201.037 40.9575 200.972 40.9975C200.906 41.0375 200.853 41.1076 200.853 41.1534C200.853 41.1993 200.71 41.3798 200.535 41.5546C200.36 41.7295 200.217 41.9148 200.217 41.9665C200.217 42.0181 200.186 42.0605 200.149 42.0607C200.112 42.0609 199.89 42.2959 199.657 42.5831C199.079 43.2956 198.714 43.6955 198.642 43.6955C198.555 43.6955 198.34 43.4652 197.674 42.658C197.349 42.2648 197.012 41.8787 196.924 41.7998C196.837 41.7211 196.765 41.6256 196.765 41.5876C196.765 41.5496 196.622 41.3646 196.447 41.1763C196.053 40.7523 196 40.6907 195.443 40.0164C195.196 39.7166 194.943 39.4386 194.88 39.3987C194.818 39.3587 194.767 39.2897 194.767 39.2453C194.767 39.2009 194.641 39.0292 194.488 38.8638C194.069 38.412 193.924 38.0973 194.039 37.884C194.121 37.7295 194.249 37.7031 195.018 37.6804L195.902 37.6545L195.928 36.4962L195.953 35.338H189.599C186.104 35.338 183.18 35.3133 183.101 35.2831C183.02 35.2519 182.937 35.2836 182.909 35.3565ZM226.198 35.3228C226.144 35.3409 226.107 35.8049 226.107 36.4713C226.107 37.4073 226.131 37.5986 226.251 37.6447C226.33 37.6751 226.977 37.6999 227.689 37.6999H228.984L229.363 38.0493L229.741 38.3987V44.8947V51.3907L229.52 51.6288C229.302 51.8646 229.286 51.867 227.817 51.8918L226.334 51.9168V53.0978V54.2788L231.447 54.3022L236.559 54.3257L236.534 53.1212L236.509 51.9168L235.228 51.8917C233.987 51.8674 233.94 51.8593 233.729 51.6347L233.511 51.4027L233.486 46.7088C233.472 44.1272 233.472 41.1769 233.486 40.1526L233.511 38.2904L233.817 38.9263C233.985 39.276 234.224 39.787 234.347 40.0618C234.471 40.3366 234.646 40.725 234.735 40.9248C235.038 41.5982 235.351 42.2839 235.636 42.8968C235.791 43.232 235.918 43.5693 235.918 43.6463C235.918 43.7233 235.959 43.7864 236.009 43.7864C236.059 43.7864 236.1 43.8298 236.1 43.8829C236.1 43.9768 236.254 44.3233 236.885 45.6555C237.053 46.0089 237.19 46.3297 237.19 46.3684C237.19 46.4071 237.357 46.7924 237.56 47.2246C237.764 47.6569 237.985 48.1332 238.053 48.2831C238.162 48.5267 238.718 49.7406 239.051 50.4633C239.172 50.7261 239.531 51.5331 239.777 52.0985C239.843 52.2484 240.042 52.6776 240.22 53.0524C240.398 53.4271 240.571 53.8464 240.603 53.9843C240.639 54.136 240.739 54.2537 240.857 54.2826C240.963 54.3087 241.889 54.3186 242.913 54.3045L244.775 54.2788L245.093 53.6359C245.462 52.8908 245.729 52.2678 245.729 52.1545C245.729 52.111 245.788 52.0267 245.86 51.9671C245.931 51.9076 246.018 51.7288 246.052 51.5699C246.086 51.4109 246.145 51.24 246.183 51.1901C246.221 51.1401 246.386 50.7926 246.548 50.4179C246.711 50.0432 246.984 49.43 247.155 49.0553C247.325 48.6805 247.5 48.2922 247.542 48.1923C247.751 47.6933 248.135 46.8539 248.415 46.2806C248.586 45.9286 248.727 45.6078 248.727 45.5676C248.727 45.5274 248.891 45.1551 249.09 44.7402C249.29 44.3253 249.454 43.9603 249.454 43.929C249.454 43.8977 249.592 43.5768 249.761 43.2161C249.93 42.8552 250.139 42.3965 250.226 42.1966C250.313 41.9968 250.487 41.6084 250.613 41.3336C250.853 40.8074 250.934 40.6251 251.315 39.7439C251.445 39.4441 251.611 39.0903 251.684 38.9577C251.756 38.8251 251.816 38.6513 251.816 38.5716C251.816 38.4919 251.871 38.4266 251.938 38.4266C252.038 38.4266 252.07 39.5281 252.12 44.6267C252.154 48.1141 252.145 50.9721 252.1 51.1588C251.942 51.817 251.832 51.8631 250.358 51.8915L249.045 51.9168V53.0978V54.2788L255.167 54.3021C259.613 54.3191 261.322 54.2974 261.412 54.2229C261.504 54.1469 261.536 53.8421 261.536 53.051C261.536 52.1597 261.512 51.9725 261.392 51.9265C261.313 51.8962 260.625 51.8714 259.862 51.8714C258.361 51.8714 258.358 51.8705 258.108 51.3263C258.033 51.1638 257.995 49.3016 257.975 44.7796C257.949 38.8605 257.958 38.4497 258.107 38.3004C258.194 38.2129 258.266 38.1031 258.266 38.0568C258.266 38.0104 258.322 37.9724 258.391 37.9724C258.46 37.9724 258.567 37.9111 258.629 37.8361C258.72 37.7267 258.997 37.6999 260.041 37.6999C260.755 37.6999 261.404 37.6751 261.483 37.6447C261.603 37.5986 261.627 37.4073 261.627 36.4713C261.627 35.8077 261.59 35.3408 261.536 35.3228C261.486 35.3062 258.766 35.3034 255.492 35.3165C249.935 35.339 249.534 35.351 249.483 35.4982C249.452 35.585 249.351 35.8274 249.259 36.037C249.166 36.2466 249.09 36.4562 249.09 36.5028C249.09 36.5494 249.033 36.6351 248.963 36.6933C248.893 36.7513 248.809 36.9054 248.776 37.0356C248.744 37.1656 248.581 37.5625 248.415 37.9175C248.249 38.2725 248.042 38.7264 247.955 38.9263C247.868 39.1261 247.703 39.494 247.588 39.7439C247.473 39.9937 247.273 40.4331 247.144 40.7204C247.016 41.0078 246.804 41.4778 246.673 41.7651C246.543 42.0525 246.362 42.451 246.272 42.6508C246.182 42.8507 245.942 43.3743 245.737 43.8144C245.533 44.2546 245.366 44.6407 245.366 44.6724C245.366 44.704 245.227 45.0184 245.057 45.3709C244.576 46.3712 244.276 47.0539 244.276 47.1503C244.276 47.1987 244.235 47.2384 244.185 47.2384C244.135 47.2384 244.094 47.2973 244.094 47.3693C244.094 47.6557 243.901 47.5953 243.769 47.2677C243.692 47.0767 243.495 46.6343 243.331 46.2846C243.167 45.9348 242.925 45.4162 242.792 45.132C242.659 44.8479 242.55 44.572 242.55 44.5188C242.55 44.4657 242.509 44.4223 242.459 44.4223C242.409 44.4223 242.368 44.3592 242.368 44.2822C242.368 44.2052 242.241 43.868 242.085 43.5327C241.755 42.8209 241.461 42.176 241.135 41.4472C241.007 41.1598 240.824 40.7613 240.73 40.5614C240.636 40.3616 240.459 39.9732 240.338 39.6984C240.082 39.1179 239.613 38.0883 239.363 37.5576C239.267 37.3545 239.189 37.1399 239.189 37.0807C239.189 37.0216 239.151 36.9731 239.105 36.9731C239.059 36.9731 238.995 36.8546 238.964 36.7098C238.932 36.5649 238.774 36.1948 238.614 35.8872L238.323 35.328L232.306 35.3103C228.997 35.3005 226.248 35.3062 226.198 35.3228ZM265.34 35.3451C265.292 35.3747 265.266 35.8924 265.28 36.5261L265.306 37.6545L266.813 37.6793L268.319 37.7042L268.584 37.9804L268.849 38.2567L268.9 43.8604C268.942 48.5579 268.974 49.5595 269.095 50.0545C269.24 50.6429 269.686 51.6215 270.006 52.0531C270.318 52.4741 271.196 53.3249 271.317 53.3249C271.383 53.3249 271.438 53.3628 271.438 53.4091C271.438 53.4553 271.55 53.551 271.688 53.6215C271.825 53.6921 272.126 53.857 272.357 53.9881C272.776 54.2252 273.081 54.3479 274.118 54.6954C276.511 55.4978 282.055 55.6895 285.337 55.0833C287.259 54.7282 288.854 53.9859 289.836 52.9895C290.297 52.5219 290.738 51.9023 290.835 51.5847C290.87 51.4676 290.95 51.3105 291.012 51.2355C291.074 51.1606 291.212 50.7238 291.319 50.2649C291.507 49.4594 291.514 49.2353 291.514 43.7671V38.1036L291.718 37.9244C291.9 37.7657 292.098 37.7401 293.467 37.6999L295.011 37.6545V36.494V35.3336L289.561 35.3334L284.11 35.3333L284.085 36.5166L284.06 37.6999L285.493 37.7028C286.91 37.7056 286.93 37.7083 287.199 37.9451L287.471 38.1845V44.0059V49.8274L287.267 50.3539C287.031 50.9602 286.993 51.0159 286.381 51.6385C285.424 52.6134 283.724 53.1158 281.067 53.2091C280.149 53.2413 279.75 53.2118 278.986 53.0551C278.465 52.9484 277.957 52.8168 277.855 52.7626C277.754 52.7083 277.578 52.6389 277.465 52.6083C277.126 52.5169 276.319 51.8802 275.999 51.4519C275.551 50.8519 275.34 50.2788 275.24 49.3876C275.188 48.9176 275.162 46.4251 275.179 43.3795L275.208 38.1746L275.443 37.9395C275.674 37.7082 275.701 37.7042 277.169 37.6795L278.66 37.6545V36.4956V35.3367L272.042 35.3146C268.403 35.3024 265.386 35.3162 265.34 35.3451ZM328.755 35.3788C328.625 35.5087 328.645 37.4583 328.778 37.5909C328.853 37.6666 329.333 37.6999 330.352 37.6999C331.765 37.6999 331.823 37.7072 332.014 37.9101L332.211 38.1204V44.7984V51.4763L332.001 51.6739C331.804 51.8592 331.704 51.8714 330.373 51.8714C329.594 51.8714 328.891 51.8962 328.812 51.9265C328.692 51.9727 328.669 52.1638 328.669 53.0978C328.669 54.0317 328.692 54.2229 328.812 54.269C328.891 54.2994 331.855 54.3242 335.398 54.3242H341.841V53.0999V51.8756L340.238 51.8508C338.645 51.8262 338.634 51.8246 338.473 51.5989C338.322 51.387 338.31 50.9287 338.282 44.7706L338.253 38.1693L338.473 37.9346L338.693 37.6999H340.269H341.846L341.821 36.5164L341.795 35.333L335.318 35.3127C331.32 35.3003 328.808 35.3256 328.755 35.3788ZM135.31 37.0157C136.712 37.2539 137.361 37.4897 138.573 38.2C139.65 38.8312 140.706 40.0126 141.268 41.2143C141.414 41.5256 141.533 41.8165 141.533 41.861C141.533 41.9053 141.589 42.0603 141.659 42.2053C141.728 42.3504 141.832 42.8779 141.89 43.3776C141.948 43.8772 142.011 44.3882 142.03 44.5131C142.086 44.8865 141.804 47.0814 141.663 47.366C141.592 47.511 141.533 47.6705 141.533 47.7202C141.533 47.8135 141.069 48.7926 140.987 48.8736C140.961 48.8986 140.824 49.103 140.681 49.3278C140.374 49.8105 139.131 51.0407 138.754 51.2353C138.608 51.3103 138.469 51.3981 138.444 51.4307C138.419 51.4633 138.153 51.5978 137.854 51.7295C137.554 51.8612 137.237 52.0089 137.149 52.0577C137.061 52.1065 136.734 52.2099 136.422 52.2874C136.11 52.365 135.712 52.4656 135.537 52.5111C135.132 52.6165 132.611 52.6159 132.131 52.5103C131.433 52.357 130.676 52.1287 130.591 52.0458C130.543 51.9999 130.441 51.9615 130.364 51.9607C130.236 51.9593 129.842 51.7681 128.986 51.2914C128.817 51.1972 128.646 51.0643 128.606 50.9961C128.566 50.9279 128.494 50.8721 128.447 50.8721C128.349 50.8721 127.271 49.8155 127.271 49.7197C127.271 49.6855 127.192 49.5731 127.096 49.4699C126.888 49.2465 126.389 48.2988 126.113 47.6018C125.538 46.1517 125.51 43.3955 126.057 42.0149C126.31 41.3768 126.85 40.3128 127.041 40.077C127.757 39.1914 128.86 38.2333 129.462 37.9746C129.581 37.9236 129.739 37.8436 129.814 37.7967C130.989 37.0611 133.488 36.7061 135.31 37.0157ZM72.7721 43.6576C72.7765 43.7635 72.798 43.785 72.827 43.7126C72.8532 43.647 72.85 43.5686 72.8198 43.5385C72.7897 43.5083 72.7682 43.5619 72.7721 43.6576ZM72.5802 43.9453C72.5784 44.0327 72.4981 44.2678 72.4016 44.4677C72.305 44.6676 72.2247 44.8601 72.223 44.8957C72.2213 44.9313 72.0806 45.2583 71.9103 45.6225C71.3691 46.78 71.1298 47.3321 71.1298 47.4228C71.1298 47.4712 71.0962 47.5109 71.0551 47.5109C70.9331 47.5109 70.5698 48.3971 70.5229 48.8094C70.4648 49.3197 70.6219 49.1039 70.8233 48.3967C70.9051 48.1093 71.0075 47.8743 71.0509 47.8743C71.0943 47.8743 71.1298 47.8201 71.1298 47.7539C71.1298 47.5505 71.5719 47.19 71.6839 47.302C71.7535 47.3716 71.7531 47.4171 71.6827 47.4606C71.5607 47.536 71.5514 47.8743 71.6713 47.8743C71.7193 47.8743 71.8038 47.7005 71.859 47.4882C72.0638 46.6992 72.3306 46.1012 72.5773 45.8782C72.7634 45.71 72.8481 45.5273 72.8941 45.1944C72.9287 44.9446 72.9772 44.6585 73.002 44.5585C73.0452 44.3835 73.0419 44.383 72.9119 44.5449C72.708 44.7991 72.5999 44.6546 72.6515 44.1966C72.6769 43.971 72.672 43.7864 72.6405 43.7864C72.6091 43.7864 72.5819 43.858 72.5802 43.9453ZM4.20129 57.163C4.26134 57.3438 6.26251 57.3685 6.49688 57.1914C6.65967 57.0683 6.55648 57.055 5.42031 57.0524C4.45438 57.0501 4.17231 57.0757 4.20129 57.163ZM8.36424 58.6735C8.01704 58.7705 8.04584 58.9269 8.4222 58.9891C8.94636 59.0758 9.08426 59.0603 9.08426 58.9149C9.08426 58.8418 9.00523 58.7396 8.90857 58.6878C8.71544 58.5845 8.68546 58.5837 8.36424 58.6735ZM18.0376 60.2773C17.9406 60.3506 17.726 60.4107 17.5607 60.4107C17.3954 60.4107 17.2601 60.4465 17.2601 60.4901C17.2601 60.6661 18.4736 60.7602 18.5773 60.5923C18.6082 60.5424 18.8048 60.4971 19.0142 60.4918L19.3949 60.4821L19.0088 60.3956C18.7964 60.3481 18.6227 60.2707 18.6227 60.2236C18.6227 60.0923 18.2353 60.1278 18.0376 60.2773ZM16.17 60.4762C15.7613 60.5495 15.7496 60.6832 16.1518 60.6832C16.4304 60.6832 16.5334 60.6464 16.5334 60.5469C16.5334 60.472 16.5027 60.4162 16.4652 60.423C16.4278 60.4298 16.2949 60.4537 16.17 60.4762ZM60.4103 60.8901C60.4103 60.954 60.3233 61.0807 60.2169 61.1717C59.969 61.384 59.8165 61.1965 60.0322 60.9445C60.1995 60.7491 60.4103 60.7188 60.4103 60.8901ZM2.21692 64.6035C2.13135 64.742 2.22819 64.7865 2.54659 64.7549L2.83956 64.7257L2.55568 64.6201C2.37426 64.5527 2.25208 64.5467 2.21692 64.6035ZM56.6902 65.9564C56.4379 66.2086 56.2316 66.4335 56.2316 66.4561C56.2316 66.54 56.4043 66.4932 56.5204 66.3777C56.5863 66.312 56.7173 66.2153 56.8114 66.1629C56.9592 66.0805 57.2868 65.4979 57.1853 65.4979C57.1652 65.4979 56.9423 65.7042 56.6902 65.9564ZM1.4989 65.6796C1.46429 65.7355 1.61727 65.7704 1.89698 65.7704C2.14679 65.7704 2.37644 65.7295 2.40733 65.6796C2.44194 65.6236 2.28896 65.5887 2.00926 65.5887C1.75944 65.5887 1.52979 65.6296 1.4989 65.6796ZM55.2777 67.5907C55.0279 67.7873 54.7929 67.9486 54.7555 67.9494C54.6635 67.9511 53.925 68.6724 53.9702 68.7164C54.0331 68.7778 54.9722 68.1094 55.4509 67.6627C56.0108 67.1401 55.9059 67.0965 55.2777 67.5907ZM10.8482 67.9829C10.7914 68.1309 9.3627 68.4957 8.83981 68.4957C8.60443 68.4957 8.44982 68.4489 8.41893 68.3683C8.34553 68.1771 8.43683 68.1323 8.89958 68.1323C9.13105 68.1323 9.35924 68.0946 9.40675 68.0485C9.50695 67.9512 9.86115 67.8927 10.4668 67.8734C10.7937 67.8631 10.8842 67.889 10.8482 67.9829ZM49.0096 68.2795C48.6346 68.5845 47.776 69.163 47.5807 69.2422C47.4923 69.2781 47.4199 69.3452 47.4199 69.3913C47.4199 69.4375 47.3205 69.5002 47.1991 69.5307C47.0776 69.5612 46.9241 69.6371 46.8579 69.6995C46.7089 69.8398 45.4213 70.5239 45.4213 70.4626C45.4213 70.4382 45.3981 70.3578 45.3698 70.2839C45.3184 70.1499 45.7084 69.6786 45.969 69.5597C46.0425 69.5262 46.2661 69.396 46.466 69.2704C46.6659 69.1448 46.8907 69.0152 46.9656 68.9825C47.0406 68.9498 47.4308 68.7707 47.8326 68.5844C48.2346 68.3982 48.6945 68.217 48.8546 68.1818C49.0148 68.1467 49.1459 68.0735 49.1459 68.0191C49.1459 67.9648 49.1765 67.9513 49.214 67.9891C49.2515 68.0269 49.1595 68.1576 49.0096 68.2795ZM6.68129 68.5795C6.59454 68.7198 6.10462 68.7875 5.69838 68.7153C5.35154 68.6537 5.33628 68.6406 5.5414 68.5804C5.87679 68.4821 6.74189 68.4813 6.68129 68.5795ZM53.1429 69.1946C53.068 69.2214 52.9658 69.2915 52.9158 69.3503C52.8659 69.409 52.6696 69.552 52.4795 69.6681C52.2896 69.7841 52.1546 69.8995 52.1796 69.9246C52.2543 69.9992 53.0626 69.5733 53.1175 69.4303C53.1454 69.3576 53.2545 69.2632 53.36 69.2206C53.5668 69.137 53.37 69.1135 53.1429 69.1946ZM31.0682 70.2024C31.0682 70.3083 29.9887 70.8989 29.5693 71.0225C29.0301 71.1813 28.9426 71.2562 29.0539 71.4642C29.2377 71.8076 29.0505 71.896 28.0336 71.9461C27.0672 71.9938 26.955 72.0346 26.7653 72.4076C26.6287 72.6763 25.5565 73.0994 24.7068 73.2199C24.3454 73.2711 23.9221 73.3712 23.7662 73.4421C23.6104 73.5131 23.1804 73.6159 22.8109 73.6708C22.4413 73.7255 22.1046 73.7916 22.0629 73.8174C22.021 73.8433 21.6284 73.9235 21.1905 73.9958C20.7525 74.068 20.0263 74.2132 19.5766 74.3183C19.1269 74.4235 18.3972 74.53 17.9549 74.5552L17.1507 74.601L17.2154 74.3065L17.2801 74.012L16.5661 74.072C14.7022 74.2289 14.4661 74.2373 14.4117 74.1493C14.3515 74.0517 14.9617 73.807 15.6079 73.6696C15.8232 73.6238 16.1707 73.5289 16.38 73.4585C16.7796 73.3245 17.6298 73.2018 18.3956 73.1679C18.6454 73.1569 19.1156 73.0807 19.4403 72.9987C19.9687 72.8652 20.8952 72.7615 22.8469 72.6175C23.1967 72.5917 23.6116 72.5122 23.7691 72.4408C23.9265 72.3695 24.1229 72.3111 24.2056 72.3111C24.2882 72.3111 24.531 72.2313 24.7452 72.1337C25.0669 71.9872 26.1177 71.7531 26.3318 71.7802C26.5571 71.8088 26.726 71.7304 26.9496 71.4935C27.1587 71.272 27.2806 71.221 27.6018 71.221C27.9932 71.221 29.0443 70.9543 29.5693 70.7218C30.8787 70.1419 31.0682 70.0762 31.0682 70.2024ZM14.4138 70.4559C14.5214 70.7362 14.2119 70.8826 13.3024 70.9812C12.4618 71.0723 12.416 71.0682 12.27 70.888C12.1861 70.7842 12.0255 70.6702 11.9133 70.6346C11.7495 70.5826 11.7302 70.5444 11.8159 70.4412C11.8982 70.342 12.201 70.3126 13.1407 70.3126C14.1663 70.3126 14.3675 70.3352 14.4138 70.4559ZM46.8294 71.2261C46.476 71.3301 45.8946 71.6561 45.6806 71.8702C45.4448 72.106 45.6525 72.0852 46.1488 71.8232C46.3733 71.7047 46.6559 71.5771 46.777 71.5396C47.052 71.4543 47.4239 71.1265 47.2326 71.138C47.1607 71.1422 46.9793 71.1819 46.8294 71.2261ZM36.7071 71.44C36.6344 71.5277 36.6309 71.5868 36.696 71.6271C36.8229 71.7055 36.9729 71.6055 36.9729 71.4427C36.9729 71.2759 36.8444 71.2746 36.7071 71.44ZM42.9686 71.4481C42.9686 71.523 42.934 71.5844 42.8916 71.5844C42.8493 71.5844 42.7204 71.6661 42.6052 71.766C42.49 71.866 42.3094 71.9477 42.2038 71.9477C42.0984 71.9477 41.8595 72.0295 41.6731 72.1294C41.2708 72.345 40.6975 72.3755 40.6975 72.1814C40.6975 72.0414 41.3502 71.7705 42.1285 71.5874C42.391 71.5258 42.6284 71.4385 42.6562 71.3936C42.7386 71.2603 42.9686 71.3006 42.9686 71.4481ZM44.4534 72.4513C44.4238 72.5284 44.4224 72.6142 44.4502 72.642C44.5298 72.7216 44.6946 72.5867 44.6946 72.442C44.6946 72.2677 44.5212 72.2744 44.4534 72.4513ZM36.5187 74.432C35.8594 74.6691 35.7975 74.7609 36.3371 74.7016C36.9265 74.6366 37.2455 74.5318 37.2455 74.4028C37.2455 74.278 36.9091 74.2916 36.5187 74.432ZM34.3259 75.2164L34.1114 75.3964L34.4294 75.3466C35.0302 75.2527 35.1561 75.2145 35.1561 75.1255C35.1561 74.9644 34.5467 75.031 34.3259 75.2164ZM25.5788 75.5379C25.4825 75.6108 25.4257 75.6923 25.4524 75.7191C25.4792 75.7458 25.5988 75.6863 25.7183 75.5867C25.9667 75.3799 25.8444 75.3371 25.5788 75.5379ZM24.0279 75.7112C23.3113 75.8309 22.5804 76.1179 22.9832 76.1214C23.5668 76.1265 24.9242 75.9317 25.0836 75.8201C25.2577 75.6982 25.2571 75.6942 25.0536 75.6397C24.8139 75.5755 24.8592 75.5724 24.0279 75.7112ZM29.1113 75.7692C29.0784 75.8225 29.0742 75.8889 29.1021 75.9167C29.1767 75.9914 29.433 75.8748 29.433 75.766C29.433 75.6427 29.188 75.6451 29.1113 75.7692ZM27.6395 76.0118C27.2708 76.0376 27.1404 76.0878 27.0621 76.2342C26.9642 76.4172 26.9772 76.4218 27.4756 76.3804C27.8424 76.3501 28.0468 76.2813 28.1868 76.1413C28.3232 76.0049 28.3424 75.95 28.2495 75.9616C28.176 75.9709 27.9015 75.9934 27.6395 76.0118Z" fill="#8F8F8F"></path>
</svg>
