<svg width="289" height="109" viewBox="0 0 289 109" fill="none" xmlns="http://www.w3.org/2000/svg">
<path fill-rule="evenodd" clip-rule="evenodd" d="M140.626 0.0879937C134.539 0.643705 129.183 2.28453 124.484 5.03374C121.822 6.59072 119.864 8.12543 117.431 10.5611C114.263 13.7326 112.024 16.8564 109.952 20.9966C109.072 22.7558 107.971 25.264 107.977 25.4969C107.979 25.5556 108.426 24.7494 108.97 23.7053C113.562 14.9033 121.397 8.22229 131.007 4.91404C132.062 4.5506 132.372 4.5733 131.862 4.97664C131.693 5.11036 131.442 5.44749 131.304 5.72578C131.166 6.00407 130.831 6.41767 130.56 6.64508C130.002 7.11246 128.923 9.13392 128.923 9.71248C128.923 10.2601 128.594 10.8693 127.688 11.9949C126.756 13.1531 126.458 13.7016 125.971 15.1531L125.614 16.2175L125.99 17.2241C126.29 18.0279 126.373 18.5271 126.399 19.7017C126.426 20.8981 126.485 21.2487 126.718 21.5811C126.876 21.8057 127.145 22.4123 127.316 22.9291C127.759 24.2642 127.858 24.3898 128.059 23.8639C128.256 23.3468 128.157 22.5933 127.685 21.0161C127.291 19.6971 127.242 18.9935 127.528 18.7557C127.793 18.5353 127.912 18.6947 127.912 19.2713C127.912 20.1817 129.061 22.9356 130.182 24.7132C130.536 25.2734 130.539 25.3025 130.299 25.7099C130.064 26.1074 130.064 26.1392 130.305 26.3155C130.455 26.4253 130.523 26.5966 130.47 26.734C130.403 26.9103 130.497 26.9881 130.862 27.0566C131.127 27.1062 131.651 27.4014 132.027 27.7125L132.711 28.2781H136.799H140.887L141.201 27.23C141.374 26.6536 141.614 26.0298 141.733 25.844C141.852 25.6583 141.928 25.491 141.902 25.4723C141.74 25.3577 140.287 25.1114 140.176 25.18C140.102 25.2257 139.848 25.6464 139.612 26.1147C139.376 26.5829 139.067 27.0282 138.925 27.1039C138.589 27.2838 136.506 27.5729 136.251 27.475C135.907 27.343 134.843 25.4015 134.753 24.7404C134.641 23.9248 135.111 22.3471 135.748 21.3967C136.523 20.2425 137.915 19.6832 139.201 20.0099C139.703 20.1374 139.878 20.1159 140.354 19.8675C140.831 19.6184 141.065 19.59 141.923 19.6761C142.586 19.7426 143.175 19.7144 143.647 19.5934C144.573 19.3559 144.723 19.477 145.111 20.7803C145.385 21.7037 146.091 22.7846 146.42 22.7846C146.733 22.7846 146.541 21.1586 146.094 20.0273C145.526 18.5875 145.591 18.4005 146.974 17.5133C148.281 16.6756 148.642 16.2541 149.435 14.6432C149.833 13.8354 150.216 13.2539 150.413 13.1581C150.968 12.8887 151.308 12.4987 151.397 12.0307C151.478 11.6033 151.519 11.5794 152.206 11.554C152.949 11.5265 153.705 11.171 153.551 10.9218C153.504 10.8446 153.206 10.6497 152.891 10.4885C152.2 10.1358 151.901 9.60853 152.193 9.25652C152.347 9.07133 152.532 9.04082 153.045 9.11571C154.969 9.39631 155.315 9.38764 155.652 9.05036L155.974 8.72827L155.271 8.33823C154.884 8.12384 153.959 7.54587 153.216 7.05391C152.472 6.56195 151.813 6.15948 151.752 6.15948C151.691 6.15948 151.561 6.25706 151.462 6.37633C151.178 6.71765 150.851 6.63756 149.891 5.99265C149.258 5.56762 148.819 5.38041 148.387 5.35208C148.052 5.3301 147.647 5.29121 147.489 5.26592C147.25 5.22789 147.192 5.31189 147.156 5.74313C147.117 6.2134 147.168 6.30043 147.661 6.60084C148.127 6.8839 148.167 6.94447 147.922 6.99507C147.465 7.08976 147.357 7.27162 147.275 8.07859C147.208 8.74938 147.159 8.83959 146.838 8.88484C146.554 8.92503 146.338 8.77786 145.819 8.18875L145.16 7.44149L143.518 7.09352C142.615 6.90211 141.806 6.67341 141.721 6.58537C141.505 6.36317 142.775 5.20679 143.887 4.61407C145.563 3.72007 146.854 3.3906 149.078 3.28854C151.836 3.16219 154.14 3.5755 157.949 4.8805C167.87 8.27853 175.763 15.0886 180.374 24.2286C180.836 25.1439 181.216 25.8436 181.219 25.7834C181.231 25.5125 179.56 21.8706 178.76 20.4224C176.727 16.7458 174.644 13.9905 171.634 10.9978C165.633 5.03128 158.635 1.58006 149.945 0.301373C148.081 0.0269868 142.654 -0.0971954 140.626 0.0879937ZM145.394 24.3748C145.394 24.4543 145.577 24.5194 145.802 24.5194C146.036 24.5194 146.512 24.7345 146.921 25.0253C147.312 25.3036 147.782 25.5313 147.964 25.5313C148.147 25.5313 148.45 25.6849 148.637 25.8725C149.085 26.3204 150.527 26.5176 150.96 26.19C151.228 25.9873 151.209 25.974 150.653 25.9696C150.229 25.9663 149.89 25.8417 149.462 25.5313C149.048 25.2312 148.695 25.0976 148.317 25.0976C147.89 25.0976 147.686 25.0025 147.389 24.6639C147.052 24.2791 146.918 24.2302 146.201 24.2302C145.757 24.2302 145.394 24.2953 145.394 24.3748ZM107.775 25.8984C107.636 26.2618 107.677 26.3556 107.847 26.0626C107.932 25.9175 107.97 25.7683 107.933 25.7311C107.896 25.6938 107.825 25.7691 107.775 25.8984ZM151.805 26.4276C151.59 26.7762 151.653 27.3407 151.933 27.5678C152.179 27.7676 152.293 27.7724 152.814 27.6053C153.143 27.4999 153.672 27.3721 153.99 27.3216L154.568 27.2297L153.559 26.7419C152.502 26.2303 151.984 26.1376 151.805 26.4276ZM155.796 27.6998C155.796 27.7793 155.893 27.8444 156.013 27.8444C156.132 27.8444 156.229 27.7793 156.229 27.6998C156.229 27.6203 156.132 27.5553 156.013 27.5553C155.893 27.5553 155.796 27.6203 155.796 27.6998ZM178.699 31.6126C176.686 31.9495 175.019 33.0861 174.578 34.4218C174.334 35.1601 174.453 36.8906 174.795 37.5964C175.462 38.9716 177.196 40.0102 180.357 40.9288C182.752 41.6247 183.229 41.9615 183.016 42.809C182.804 43.6557 181.21 43.8847 178.978 43.3891C177.679 43.1007 176.822 42.7856 175.41 42.0765L174.433 41.5861L174.438 44.2928L174.442 46.9994L174.995 46.3594L175.548 45.7194L176.905 46.0966C179.027 46.6864 179.881 46.8206 181.513 46.8206C183.914 46.8204 185.387 46.3393 186.53 45.1819C187.284 44.4184 187.647 43.4277 187.638 42.1564C187.622 39.9499 186.067 38.5972 182.222 37.4466C179.397 36.6013 178.826 36.2561 178.939 35.4627C179.002 35.0196 179.832 34.6394 180.738 34.6393C182.131 34.6388 184.854 35.3232 186.75 36.1498C186.985 36.2523 187.003 36.0914 187.003 33.8593C187.003 32.5389 186.957 31.4585 186.901 31.4585C186.844 31.4585 186.564 31.6871 186.279 31.9664L185.759 32.4743L184.922 32.1861C183.022 31.5323 180.545 31.304 178.699 31.6126ZM60.8608 32.4344L61.2938 32.9765L61.3371 37.979L61.3806 42.9816L61.8863 43.9701C62.7124 45.5852 64.0326 46.3245 66.6718 46.6503C68.135 46.8308 70.4357 46.7559 71.7107 46.4865C73.5679 46.0938 74.8753 45.157 75.524 43.754C75.8119 43.1315 75.8307 42.8242 75.8731 38.0461L75.9178 32.9961L76.3547 32.4442L76.7916 31.8922H73.8127C70.9694 31.8922 70.8401 31.9042 70.9753 32.1571C71.0533 32.3028 71.218 32.5059 71.3416 32.6086C71.5362 32.77 71.5662 33.4095 71.5662 37.3821C71.5662 41.9017 71.5615 41.9761 71.2407 42.4525C70.6773 43.2889 70.0875 43.5299 68.6045 43.5292C67.1275 43.5286 66.6017 43.3283 66.0514 42.5561C65.7182 42.0888 65.7145 42.0386 65.6732 37.4524L65.6316 32.8205L65.9982 32.4757C66.2001 32.2862 66.3651 32.0773 66.3651 32.0116C66.3651 31.946 65.0292 31.8922 63.3965 31.8922H60.428L60.8608 32.4344ZM82.3898 32.4552L82.8354 33.0181V39.1724V45.3267L82.4019 45.8207C82.1636 46.0924 81.9685 46.3549 81.9685 46.4041C81.9685 46.4532 83.1118 46.4934 84.509 46.4934H87.0495L86.6014 45.9274L86.1534 45.3613L86.192 41.6613L86.2306 37.9613L90.1314 42.2197L94.0323 46.4782L95.6576 46.4859L97.283 46.4934V39.7996V33.1057L97.729 32.499L98.1749 31.8922H95.7063C94.3485 31.8922 93.2377 31.9375 93.2377 31.9927C93.2377 32.0481 93.4014 32.2642 93.6015 32.4731L93.9651 32.853L93.9265 36.5208L93.8878 40.1886L90.2333 36.0404L86.5788 31.8922H84.2615H81.9442L82.3898 32.4552ZM104.218 32.0116C104.218 32.0773 104.38 32.2837 104.579 32.4705L104.94 32.8101V39.0887V45.3675L104.495 45.9305L104.049 46.4934H107.095C108.771 46.4934 110.141 46.4532 110.141 46.4041C110.141 46.3549 109.946 46.0924 109.708 45.8207L109.275 45.3267V39.124C109.275 35.3468 109.328 32.888 109.412 32.8361C109.488 32.7893 109.687 32.5577 109.856 32.3216L110.161 31.8922H107.189C105.555 31.8922 104.218 31.946 104.218 32.0116ZM114.042 31.9383C114.042 31.9636 115.556 35.2327 117.405 39.2028L120.768 46.4211L122.295 46.4619L123.823 46.5028L127.183 39.3781C129.031 35.4597 130.576 32.1724 130.615 32.0729C130.672 31.9324 130.119 31.8922 128.13 31.8922H125.572L125.997 32.4215L126.421 32.9507L124.612 36.9055C123.617 39.0806 122.754 40.8104 122.695 40.7494C122.559 40.6093 119.243 33.0882 119.243 32.9197C119.243 32.8511 119.345 32.7111 119.468 32.6086C119.592 32.5059 119.756 32.3028 119.834 32.1571C119.97 31.9044 119.841 31.8922 117.009 31.8922C115.377 31.8922 114.042 31.9129 114.042 31.9383ZM134.558 32.0116C134.558 32.0773 134.72 32.2837 134.919 32.4705L135.28 32.8101V39.1127V45.4155L134.836 45.9545L134.392 46.4934H141.266H148.139V44.5319V42.5705L147.71 42.8761C147.474 43.0443 147.242 43.2438 147.195 43.3197C147.145 43.4014 145.583 43.4575 143.362 43.4575H139.615V42.0119V40.5662H141.99C143.34 40.5662 144.402 40.6256 144.45 40.704C144.497 40.7799 144.729 40.9794 144.965 41.1476L145.394 41.4532V39.1198V36.7864L144.855 37.2306L144.316 37.6749H141.965H139.615V36.3015V34.9281H143.418H147.221L147.561 35.2895C147.747 35.4883 147.954 35.6509 148.019 35.6509C148.085 35.6509 148.139 34.8052 148.139 33.7716V31.8922H141.348C137.614 31.8922 134.558 31.946 134.558 32.0116ZM154.19 32.4232L154.64 32.9701V39.1706V45.371L154.179 45.8961L153.718 46.4211L156.656 46.4603C158.272 46.4818 159.626 46.4684 159.664 46.4302C159.702 46.3922 159.562 46.1581 159.354 45.9102C158.983 45.4691 158.974 45.4138 158.974 43.3741V41.289H159.893H160.811L162.132 43.2819C162.859 44.3778 163.453 45.3338 163.453 45.4063C163.453 45.4787 163.279 45.7197 163.066 45.9419C162.854 46.1641 162.714 46.3803 162.756 46.4224C162.798 46.4646 164.244 46.4815 165.969 46.4601L169.105 46.4211L168.067 44.9032C167.495 44.0683 166.612 42.7857 166.104 42.0528L165.18 40.7204L165.782 40.4131C166.695 39.9469 167.716 38.9112 168.094 38.0672C168.593 36.9555 168.568 35.2826 168.037 34.256C167.575 33.361 166.836 32.721 165.765 32.2879C164.999 31.9781 164.768 31.9649 159.355 31.9214L153.739 31.8765L154.19 32.4232ZM197.55 31.9469C197.55 31.9769 197.639 32.2208 197.748 32.489C197.945 32.9736 197.927 33.0165 194.714 39.688C192.936 43.3794 191.482 46.4207 191.482 46.4464C191.482 46.4723 192.652 46.4934 194.082 46.4934C195.512 46.4934 196.683 46.4363 196.683 46.3665C196.683 46.2968 196.582 46.1557 196.458 46.0532C195.955 45.6354 195.913 45.3315 196.258 44.5945L196.588 43.8912H200.111H203.634L203.973 44.6502L204.312 45.4092L203.893 45.8498C203.662 46.0921 203.473 46.336 203.473 46.3919C203.473 46.4477 204.844 46.4934 206.519 46.4934C208.212 46.4934 209.544 46.4369 209.517 46.3662C209.491 46.2964 207.878 43.0111 205.933 39.0656L202.398 31.8922H199.974C198.641 31.8922 197.55 31.9168 197.55 31.9469ZM213.731 32.0116C213.731 32.0773 213.893 32.2837 214.092 32.4705L214.453 32.8101V39.1127V45.4155L214.009 45.9545L213.565 46.4934H220.222H226.878V44.5319V42.5705L226.449 42.8761C226.213 43.0443 225.982 43.2438 225.935 43.3197C225.885 43.401 224.402 43.4575 222.319 43.4575H218.788V38.1337V32.8101L219.149 32.4705C219.347 32.2837 219.51 32.0773 219.51 32.0116C219.51 31.946 218.21 31.8922 216.62 31.8922C215.031 31.8922 213.731 31.946 213.731 32.0116ZM226.373 32.1014C226.293 32.1315 226.051 32.1952 225.833 32.2431C225.302 32.3602 224.468 33.1142 224.125 33.7882C223.798 34.4292 223.76 35.4591 224.039 36.1254C224.313 36.7807 225.307 37.6295 226.026 37.8235C227.153 38.1271 228.447 37.6312 229.141 36.6299C229.591 35.9793 229.749 34.8087 229.492 34.0288C229.308 33.4712 228.614 32.6983 228.022 32.3919C227.615 32.1814 226.623 32.0066 226.373 32.1014ZM228.236 32.8685C229.069 33.456 229.363 34.0889 229.301 35.1638C229.239 36.2578 228.743 36.9911 227.775 37.4193C226.065 38.1762 224.133 36.8931 224.133 35.0004C224.133 32.8618 226.49 31.6372 228.236 32.8685ZM226.122 33.7016C224.429 34.6513 225.753 37.1569 227.522 36.3505C227.724 36.2583 227.89 36.092 227.89 35.981C227.89 35.8152 227.832 35.8194 227.568 36.0041C227.025 36.3851 226.379 36.292 225.939 35.7692C225.637 35.4095 225.571 35.2125 225.637 34.8657C225.81 33.9611 226.85 33.4932 227.568 33.9967C227.918 34.2413 228.018 34.0581 227.686 33.7823C227.349 33.5023 226.55 33.4612 226.122 33.7016ZM163.313 35.1745C163.887 35.5707 164.022 35.8269 164.026 36.535C164.03 36.9979 163.939 37.3197 163.729 37.586C163.18 38.2852 162.661 38.4467 160.744 38.5145L158.974 38.5771V36.7527V34.9281H160.965C162.604 34.9281 163.018 34.9716 163.313 35.1745ZM201.361 38.6744C201.967 39.9794 202.439 41.0707 202.41 41.0995C202.382 41.1283 201.318 41.1339 200.048 41.1119L197.737 41.0722L198.894 38.572C199.53 37.1969 200.098 36.1235 200.155 36.1867C200.212 36.2499 200.755 37.3693 201.361 38.6744ZM150.523 50.918C150.92 51.2781 151.723 51.9334 152.307 52.3742C153.132 52.9973 153.445 53.3411 153.714 53.9186C154.127 54.8067 154.135 54.922 153.815 55.4108C153.649 55.6641 153.513 56.3613 153.402 57.5273C153.269 58.9252 153.183 59.3106 152.963 59.4936C152.782 59.6446 152.602 60.1594 152.429 61.0223C152.135 62.4964 151.575 63.81 150.821 64.7985C150.307 65.4717 150.161 66.1364 150.434 66.5667C150.509 66.6842 150.48 66.9181 150.363 67.1532C150.008 67.8656 149.675 69.3922 149.782 69.8183C149.926 70.3923 150.547 70.9251 151.072 70.9251C151.504 70.9251 151.505 70.9232 151.232 70.6222C150.962 70.3234 150.964 70.3153 151.335 70.0078C151.542 69.8365 151.92 69.5825 152.176 69.4434C152.586 69.2202 152.629 69.1395 152.545 68.7567C152.474 68.4316 152.502 68.3229 152.658 68.3229C153.012 68.3229 154.138 67.2203 154.418 66.5998C154.638 66.1123 154.755 66.0098 155.09 66.0098C155.314 66.0098 155.906 65.786 156.405 65.5126C156.904 65.2393 157.736 64.9043 158.252 64.7683C159.291 64.4949 159.697 64.1549 159.697 63.5581C159.697 63.2112 159.826 63.0984 160.744 62.6419C162.59 61.7244 164.487 59.8662 165.605 57.8819C166.285 56.6736 167.364 56.0348 168.724 56.0348C169.305 56.0348 169.362 55.9951 169.864 55.2389C170.154 54.8012 170.494 54.1344 170.619 53.7571C170.744 53.3798 171.026 52.8435 171.244 52.5652C171.838 51.8084 171.977 51.4958 171.823 51.2563C171.749 51.1413 171.726 50.8683 171.772 50.6497L171.856 50.2521L160.828 50.2576L149.8 50.2632L150.523 50.918ZM181.169 54.2333C181.03 54.5968 181.071 54.6906 181.241 54.3975C181.326 54.2524 181.364 54.1032 181.327 54.0661C181.29 54.0288 181.219 54.1041 181.169 54.2333ZM107.834 54.3722C107.834 54.4518 107.897 54.6144 107.974 54.7337C108.051 54.8529 108.114 54.8855 108.114 54.8059C108.114 54.7264 108.051 54.5638 107.974 54.4445C107.897 54.3253 107.834 54.2927 107.834 54.3722ZM180.097 56.529C176.252 64.029 169.579 70.2987 161.629 73.878C157.749 75.6253 154.296 76.6095 149.856 77.2338C147.365 77.5839 141.689 77.5841 139.198 77.2338C129.754 75.9061 121.729 71.9174 115.413 65.4122C112.696 62.6135 110.784 59.9898 109.001 56.613C108.518 55.6986 108.122 54.9936 108.121 55.0461C108.116 55.2674 109.213 57.679 110.056 59.2969C116.142 70.9824 126.222 78.2109 138.892 79.9752C141.125 80.286 145.7 80.3937 147.85 80.1858C152.915 79.6962 157.05 78.533 161.503 76.3454C169.774 72.282 176.652 64.9851 180.497 56.1968C180.823 55.451 181.071 54.8218 181.048 54.7986C181.025 54.7753 180.597 55.5541 180.097 56.529ZM89.0246 98.6862C86.8351 99.0249 85.6274 100.357 86.0011 102.022C86.299 103.349 87.2854 104.122 89.5993 104.844C91.3439 105.388 91.7929 105.636 91.7929 106.055C91.7929 107.239 88.9709 106.966 86.1222 105.508C86.0625 105.477 86.0139 106.25 86.0139 107.226V109L86.4292 108.602L86.8445 108.204L87.9101 108.537C88.7615 108.804 89.3095 108.871 90.6371 108.872C92.513 108.874 93.1451 108.712 93.9218 108.029C94.5708 107.459 94.8269 106.85 94.8269 105.876C94.8269 104.309 93.9147 103.475 91.3078 102.66C89.4738 102.087 89.0479 101.843 89.0479 101.362C89.0479 100.995 89.6203 100.703 90.3335 100.708C90.9746 100.712 92.5998 101.104 93.5174 101.474L94.3935 101.829V100.156V98.4831L93.9962 98.8627L93.5989 99.2425L92.6375 98.9751C91.4082 98.6332 90.0627 98.5256 89.0246 98.6862ZM174.289 98.7011C173.044 98.9052 172.04 99.4633 171.616 100.187C171.032 101.185 171.202 102.55 172.02 103.429C172.476 103.918 173.754 104.53 175.188 104.947C175.869 105.144 176.564 105.379 176.73 105.469C177.13 105.683 177.145 106.418 176.755 106.628C176.001 107.031 173.692 106.632 172.09 105.821C171.716 105.632 171.374 105.476 171.332 105.476C171.29 105.476 171.255 106.269 171.255 107.238V109L171.659 108.612L172.063 108.225L173.484 108.585C175.821 109.179 177.745 109.036 179.048 108.174C179.786 107.685 180.139 106.922 180.14 105.815C180.14 105.038 180.084 104.854 179.696 104.369C179.129 103.66 177.874 102.986 176.362 102.579C174.858 102.175 174.254 101.824 174.315 101.39C174.342 101.204 174.541 100.984 174.793 100.863C175.451 100.549 177.392 100.882 179.382 101.651C179.613 101.74 179.635 101.615 179.635 100.19V98.6313L179.284 98.9609C178.943 99.2815 178.915 99.2843 178.237 99.0657C177.393 98.7941 175.963 98.531 175.454 98.5541C175.25 98.5633 174.726 98.6295 174.289 98.7011ZM252.048 98.6919C250.281 98.9216 248.745 99.9175 248.049 101.284C247.615 102.138 247.5 102.714 247.515 103.966C247.552 107.152 250.036 109.143 253.679 108.907C255.215 108.807 256.302 108.379 257.271 107.493C258.428 106.435 258.736 105.643 258.731 103.742C258.728 102.384 258.686 102.137 258.33 101.405C257.598 99.8994 256.117 98.9383 254.13 98.68C253.564 98.6063 253.068 98.5524 253.029 98.56C252.989 98.5675 252.548 98.6269 252.048 98.6919ZM198.489 98.8824C196.84 99.2841 195.544 100.299 194.9 101.692C194.444 102.68 194.456 104.953 194.924 105.982C196.025 108.41 199.053 109.443 202.502 108.569C204.068 108.172 204.051 108.191 204.051 106.899C204.051 106.276 204.022 105.765 203.987 105.765C203.952 105.765 203.707 105.893 203.443 106.049C202.07 106.859 199.881 106.971 198.843 106.284C197.098 105.129 197.192 102.059 199.001 101.136C200.077 100.587 201.742 100.762 203.798 101.641C204.03 101.74 204.051 101.619 204.051 100.199V98.6485L203.687 98.8872C203.353 99.1063 203.234 99.1076 202.248 98.9038C200.988 98.6434 199.504 98.6349 198.489 98.8824ZM221.259 98.9106C219.544 99.3719 218.484 100.229 217.793 101.711C217.478 102.387 217.419 102.719 217.417 103.828C217.415 105.049 217.452 105.216 217.921 106.136C218.549 107.369 219.444 108.097 220.883 108.545C222.662 109.099 225.095 108.915 226.971 108.084L227.601 107.806V105.846V103.886H225.931H224.261L224.486 104.207C224.639 104.426 224.711 104.862 224.711 105.572V106.615L224.061 106.713C221.914 107.035 220.521 105.88 220.521 103.779C220.521 103.276 220.609 102.655 220.717 102.397C220.984 101.758 221.85 101.03 222.487 100.91C223.456 100.728 225.046 100.942 226.14 101.402L227.167 101.834V100.233V98.6313L226.832 98.9464L226.497 99.2614L225.364 98.9716C224.035 98.6316 222.387 98.607 221.259 98.9106ZM0.303256 99.1516C0.59033 99.4595 0.609113 99.6578 0.653756 102.874C0.696954 105.978 0.727583 106.329 1.00873 106.938C1.55355 108.118 2.66718 108.695 4.74951 108.876C7.09581 109.081 9.23016 108.466 9.95023 107.377C10.4614 106.604 10.5955 105.546 10.5963 102.277C10.5971 99.9324 10.6348 99.4088 10.8139 99.26C10.9331 99.161 11.0306 99.0229 11.0306 98.9532C11.0306 98.8834 10.1529 98.8263 9.08019 98.8263C8.00746 98.8263 7.12976 98.8834 7.12976 98.9532C7.12976 99.0229 7.22728 99.161 7.34648 99.26C7.52693 99.4099 7.56319 99.9656 7.56319 102.583C7.56319 105.516 7.54369 105.751 7.27193 106.097C6.60719 106.943 4.83779 107.008 4.0462 106.217L3.59009 105.76L3.54198 102.688C3.49561 99.7269 3.50485 99.6058 3.79482 99.3431C3.96039 99.1932 4.09576 99.0157 4.09576 98.9485C4.09576 98.8812 3.17429 98.8263 2.04795 98.8263H0L0.303256 99.1516ZM16.3664 99.2461C16.6519 99.6473 16.6652 99.8521 16.6652 103.827C16.6652 107.9 16.6586 107.995 16.3511 108.322L16.0369 108.657H17.727H19.4169L19.1934 108.315C19.0093 108.034 18.9768 107.539 19.0095 105.515L19.0491 103.055L21.6241 105.856L24.1989 108.657H25.3443H26.4896V104.076C26.4896 99.572 26.4948 99.4899 26.8037 99.1608L27.1179 98.8263H25.3338H23.5496L23.8673 99.1646C24.1725 99.4897 24.1835 99.5997 24.1453 101.974L24.1057 104.445L21.6496 101.641L19.1935 98.8361L17.6306 98.8312L16.0676 98.8263L16.3664 99.2461ZM32.6977 99.1073C32.7805 99.262 32.9127 99.4284 32.9918 99.4773C33.0818 99.5329 33.1355 101.125 33.1355 103.731C33.1355 107.725 33.1232 107.911 32.836 108.276L32.5367 108.657H34.595H36.6534L36.3391 108.322C36.0317 107.995 36.025 107.9 36.025 103.827C36.025 99.8521 36.0383 99.6473 36.3238 99.2461L36.6226 98.8263H34.585C32.6116 98.8263 32.5521 98.8351 32.6977 99.1073ZM40.8557 99.0861C40.901 99.2291 41.9091 101.425 43.0959 103.965L45.2535 108.585L46.3187 108.626L47.3838 108.668L49.6506 103.847C50.8974 101.196 51.9174 98.9813 51.9174 98.9262C51.9174 98.8713 51.1698 98.8263 50.256 98.8263C48.6248 98.8263 48.3781 98.9003 48.8112 99.26C48.9304 99.359 49.0282 99.5133 49.0286 99.6029C49.0301 99.925 46.6654 104.905 46.5636 104.794C46.5062 104.732 45.9549 103.525 45.3384 102.111L44.2174 99.541L44.5529 99.1837L44.8885 98.8263H42.8309C40.9163 98.8263 40.779 98.8444 40.8557 99.0861ZM56.1072 98.9532C56.1072 99.0229 56.2048 99.161 56.324 99.26C56.6539 99.5341 56.6464 107.863 56.3157 108.335L56.0909 108.657H60.65H65.2093V107.331V106.004L64.8749 106.319C64.5575 106.617 64.4099 106.633 61.9854 106.633H59.4302V105.693V104.754H61.0741C62.3589 104.754 62.7571 104.801 62.8976 104.97C62.9966 105.09 63.1671 105.187 63.2765 105.187C63.4323 105.187 63.4755 104.873 63.4755 103.742C63.4755 102.315 63.3951 102.087 63.0421 102.513C62.9007 102.683 62.4945 102.73 61.1394 102.73H59.4165L59.4594 101.826L59.5024 100.923L61.9542 100.883C64.2359 100.846 64.4338 100.864 64.8076 101.14L65.2093 101.437V100.132V98.8263H60.6583C58.1439 98.8263 56.1072 98.8831 56.1072 98.9532ZM70.834 99.2461C71.1195 99.6473 71.1328 99.8521 71.1328 103.827C71.1328 107.9 71.1261 107.995 70.8187 108.322L70.5045 108.657H72.5776H74.6506L74.3364 108.322C74.0586 108.026 74.0223 107.826 74.0223 106.587V105.187H74.6534H75.2845L76.1704 106.532C76.6577 107.271 77.0563 107.933 77.0563 108.002C77.0563 108.071 76.9487 108.247 76.8172 108.392C76.5866 108.647 76.6537 108.657 78.7039 108.657C80.3648 108.657 80.8065 108.617 80.7237 108.476C80.6653 108.377 80.0926 107.523 79.451 106.58C78.3621 104.978 78.3029 104.853 78.5619 104.7C79.1124 104.376 79.9693 103.537 80.1952 103.102C80.5071 102.501 80.4925 101.205 80.1662 100.517C79.5 99.1123 78.4417 98.8263 73.9099 98.8263H70.5352L70.834 99.2461ZM103.062 98.9081C103.062 98.9531 103.13 99.1164 103.213 99.2713C103.337 99.5033 102.992 100.32 101.25 103.924C100.088 106.328 99.103 108.377 99.0615 108.476C99.0033 108.615 99.3961 108.657 100.757 108.657C102.465 108.657 102.52 108.647 102.29 108.392C101.994 108.066 101.991 107.891 102.271 107.348L102.492 106.922H104.802H107.112L107.349 107.419C107.569 107.881 107.569 107.942 107.343 108.286L107.101 108.657H109.115H111.129L108.725 103.742L106.32 98.8263H104.691C103.795 98.8263 103.062 98.8632 103.062 98.9081ZM115.487 98.9532C115.487 99.0229 115.585 99.161 115.704 99.26C116.034 99.5341 116.026 107.863 115.696 108.335L115.471 108.657H119.885H124.3V107.331V106.004L123.966 106.319C123.65 106.615 123.497 106.633 121.221 106.633H118.81V103.113C118.81 99.7776 118.825 99.5804 119.099 99.3323C119.258 99.1884 119.388 99.0157 119.388 98.9485C119.388 98.8812 118.51 98.8263 117.437 98.8263C116.365 98.8263 115.487 98.8834 115.487 98.9532ZM137.727 99.2461C138.012 99.6473 138.025 99.8521 138.025 103.827C138.025 107.9 138.019 107.995 137.711 108.322L137.397 108.657H139.012C139.899 108.657 140.626 108.613 140.626 108.56C140.626 108.506 140.527 108.353 140.406 108.219C140.223 108.018 140.192 107.571 140.225 105.653L140.265 103.33L141.687 106.001L143.108 108.671L143.836 108.628L144.563 108.585L145.76 106.08C146.418 104.702 146.995 103.536 147.042 103.49C147.089 103.443 147.127 104.435 147.127 105.696C147.127 107.85 147.108 108.008 146.813 108.322L146.499 108.657H148.5H150.501L150.186 108.322C149.879 107.995 149.872 107.901 149.872 103.777C149.872 101.141 149.926 99.5329 150.016 99.4773C150.095 99.4284 150.227 99.262 150.31 99.1073C150.455 98.8363 150.399 98.8263 148.721 98.8263H146.982L145.549 101.79C144.76 103.42 144.085 104.754 144.047 104.754C144.01 104.754 143.274 103.42 142.413 101.79L140.846 98.8263H139.137H137.428L137.727 99.2461ZM155.507 98.9485C155.507 99.0157 155.634 99.1856 155.789 99.3259C156.051 99.5633 156.074 99.8245 156.114 103.071C156.164 107.089 156.235 107.38 157.348 108.086C158.246 108.656 159.252 108.871 160.997 108.865C163.523 108.858 164.817 108.332 165.506 107.032C165.811 106.455 165.837 106.194 165.907 102.925C165.975 99.7559 166.007 99.4059 166.257 99.1302L166.532 98.8263H164.478C162.334 98.8263 162.324 98.8299 162.836 99.4277C163.137 99.7799 163.046 105.544 162.732 106.018C162.078 107.007 159.897 107.019 159.21 106.038C159.01 105.752 158.974 105.233 158.974 102.598C158.974 99.6116 158.986 99.4829 159.288 99.1608L159.603 98.8263H157.555C156.428 98.8263 155.507 98.8812 155.507 98.9485ZM185.558 98.9119C185.558 98.959 185.688 99.163 185.847 99.3651C186.12 99.7128 186.136 99.9516 186.136 103.775C186.136 107.63 186.122 107.837 185.837 108.237L185.538 108.657H187.499C188.577 108.657 189.459 108.6 189.459 108.53C189.459 108.46 189.361 108.322 189.242 108.223C189.059 108.071 189.025 107.397 189.025 103.816C189.025 99.7577 189.037 99.5728 189.325 99.2072L189.624 98.8263H187.591C186.473 98.8263 185.558 98.8649 185.558 98.9119ZM232.784 99.2353C233.08 99.6503 233.091 99.818 233.091 103.827C233.091 107.9 233.084 107.995 232.777 108.322L232.462 108.657H234.438C235.525 108.657 236.414 108.6 236.414 108.53C236.414 108.46 236.316 108.322 236.197 108.223C236.031 108.085 235.98 107.708 235.98 106.615V105.187H236.611H237.242L238.146 106.559C239.032 107.903 239.045 107.937 238.812 108.294L238.574 108.657H240.681C242.327 108.657 242.764 108.617 242.68 108.476C242.621 108.377 242.032 107.506 241.372 106.542L240.172 104.788L240.584 104.617C240.811 104.523 241.241 104.195 241.54 103.888C242.646 102.756 242.689 100.913 241.635 99.8581C240.776 98.9992 240.394 98.9289 236.216 98.8632L232.478 98.8043L232.784 99.2353ZM263.395 99.1516C263.681 99.4592 263.701 99.6612 263.75 102.874C263.794 105.766 263.841 106.363 264.065 106.886C264.56 108.038 265.475 108.558 267.478 108.825C269.937 109.153 272.269 108.546 273.042 107.377C273.553 106.604 273.687 105.546 273.688 102.277C273.688 99.9324 273.726 99.4088 273.905 99.26C274.025 99.161 274.122 99.0229 274.122 98.9532C274.122 98.8834 273.244 98.8263 272.172 98.8263C271.099 98.8263 270.221 98.8834 270.221 98.9532C270.221 99.0229 270.319 99.161 270.438 99.26C270.618 99.4099 270.655 99.9656 270.655 102.583C270.655 105.516 270.635 105.751 270.363 106.097C269.758 106.867 267.964 107.006 267.255 106.339C266.71 105.828 266.611 105.202 266.61 102.282C266.609 99.777 266.629 99.5762 266.898 99.3323C267.057 99.1884 267.187 99.0157 267.187 98.9485C267.187 98.8812 266.266 98.8263 265.139 98.8263H263.091L263.395 99.1516ZM279.448 99.2325C279.746 99.6511 279.757 99.8101 279.757 103.827C279.757 107.9 279.75 107.995 279.443 108.322L279.128 108.657H281.104C282.191 108.657 283.08 108.6 283.08 108.53C283.08 108.46 282.982 108.322 282.863 108.223C282.707 108.093 282.646 107.751 282.646 106.996V105.949L284.344 105.845C287.731 105.638 288.992 104.665 289 102.255C289.004 101.057 288.77 100.458 288.072 99.8822C287.059 99.0473 286.412 98.9265 282.591 98.8596L279.14 98.7991L279.448 99.2325ZM254.064 100.855C256.075 101.413 256.369 105.481 254.473 106.518C253.781 106.897 252.205 106.829 251.624 106.397C250.864 105.829 250.645 105.25 250.645 103.814C250.646 102.435 250.825 101.888 251.472 101.284C252.038 100.757 253.087 100.583 254.064 100.855ZM76.7489 101.01C77.5543 101.291 77.7367 102.137 77.1413 102.83C76.8116 103.214 76.7177 103.238 75.4076 103.286L74.0223 103.336V102.093V100.85H75.1566C75.7805 100.85 76.4969 100.922 76.7489 101.01ZM238.797 101.058C239.651 101.415 239.669 102.511 238.83 103.023C238.466 103.244 238.102 103.307 237.172 103.307L235.98 103.308V102.079V100.85H237.141C237.822 100.85 238.506 100.936 238.797 101.058ZM285.502 101.152C286.226 101.604 286.275 102.826 285.594 103.465C285.271 103.769 285.059 103.82 283.935 103.864L282.646 103.915V102.363V100.81L283.917 100.883C284.615 100.923 285.329 101.044 285.502 101.152ZM105.599 103.392C106.031 104.312 106.385 105.093 106.385 105.126C106.385 105.16 105.663 105.187 104.78 105.187C103.555 105.187 103.192 105.144 103.246 105.007C103.447 104.49 104.73 101.718 104.768 101.718C104.793 101.718 105.167 102.471 105.599 103.392Z" fill="#8F8F8F"></path>
</svg>
