<svg width="801" height="193" viewBox="0 0 801 193" fill="none" xmlns="http://www.w3.org/2000/svg">
<path fill-rule="evenodd" clip-rule="evenodd" d="M316.466 1.24107C285.604 6.03807 262.574 25.3551 254.321 53.3671C252.753 58.6871 252.54 66.0291 252.24 125.044L251.906 190.794H268.953H286V129.343C286 87.6221 286.361 66.1911 287.125 62.5931C291.705 41.0241 311.766 27.2931 336 29.1391C343.747 29.7291 352.681 32.3051 357.651 35.3821C366.969 41.1501 374.622 51.9831 376.875 62.5931C377.639 66.1911 378 87.6221 378 129.343V190.794H394.5H411L411.117 187.044C411.182 184.982 411.536 155.844 411.903 122.294C412.567 61.7401 412.588 61.2541 414.86 55.7941C419.592 44.4221 428.947 35.6921 440.735 31.6441C449.653 28.5831 465.688 28.3671 474 31.1951C489.588 36.5011 500.053 48.2521 502.992 63.7541C503.6 66.9581 504 93.2291 504 129.93V190.794H521.053H538.106L537.738 125.544C537.333 53.8991 537.381 54.4951 531.056 41.7471C518.767 16.9791 495.037 2.38007 463.5 0.184069C441.21 -1.36793 416.617 6.99607 401.025 21.4311L395 27.0091L388.975 21.4311C370.775 4.58107 343.62 -2.97993 316.466 1.24107ZM0 95.7921V190.868L85.25 190.555C180.242 190.205 174.638 190.604 189.987 183.107C199.512 178.455 206.5 171.532 211.236 162.057C215.985 152.554 217.288 145.758 216.845 132.808C216.506 122.888 216.223 121.63 212.764 114.632C208.559 106.122 202.391 99.7251 193.621 94.7751L187.979 91.5911L191.74 88.8641C203.66 80.2191 210.111 65.2281 208.554 49.7941C206.063 25.1091 193.804 10.5461 169.5 3.40107C162.73 1.41007 159.836 1.33307 81.25 1.03007L0 0.716069V95.7921ZM644 1.41807C625.717 2.91707 613.104 5.79007 602.287 10.9201C583.521 19.8211 575.142 35.2321 572.997 64.7941C570.977 92.6301 572.213 134.276 575.475 148.343C581.132 172.737 595.729 184.685 627 190.521C635.283 192.067 642.841 192.293 686 192.29C729.003 192.286 736.694 192.056 744.598 190.535C780.43 183.642 795.157 168.948 799.961 135.294C800.511 131.444 800.969 119.632 800.98 109.044L801 89.7941H737H673V103.794V117.794H720.148H767.296L766.728 126.544C765.293 148.665 755.273 158.699 730.963 162.358C716.088 164.596 645.675 163.932 636.277 161.464C618.747 156.861 611.346 149.261 608.419 132.857C606.554 122.405 606.554 71.1831 608.419 60.7311C611.376 44.1581 618.969 36.5861 637 32.2321C643.367 30.6951 650.203 30.3601 682.256 30.0161C722.343 29.5861 735.05 30.3301 746.151 33.7591C757.729 37.3351 764.563 44.3411 767.425 55.5701L768.629 60.2941L784.657 60.5681L800.685 60.8421L799.758 54.5681C798.556 46.4271 794.693 34.8751 791.384 29.5251C782.586 15.3001 768.604 7.40407 744.672 3.14507C737.284 1.83007 727.039 1.46707 692 1.28107C668.075 1.15307 646.475 1.21507 644 1.41807ZM157.5 30.8171C163.138 32.8601 171.537 41.3021 172.898 46.2941C174.578 52.4531 174.189 59.7811 171.916 64.7941C169.258 70.6561 166.613 73.4021 160.5 76.6431L155.5 79.2941L94.75 79.5741L34 79.8531V54.2861V28.7201L93.75 29.0441C142.818 29.3101 154.215 29.6271 157.5 30.8171ZM165.056 110.093C175.767 114.224 182.125 123.538 182.125 135.101C182.125 146.822 176.725 155.249 166.051 160.188C161.596 162.249 160.15 162.3 97.75 162.579L34 162.864V135.996C34 121.218 34.319 108.809 34.708 108.419C35.098 108.029 63.561 107.851 97.958 108.023C154.757 108.307 160.918 108.497 165.056 110.093Z" fill="#8F8F8F"></path>
</svg>
