<svg width="1170" height="487" viewBox="0 0 1170 487" fill="none" xmlns="http://www.w3.org/2000/svg">
<path fill-rule="evenodd" clip-rule="evenodd" d="M560.578 0.484995C527.971 2.81499 516.753 4.48499 497.479 9.87799C470.642 17.388 451.741 28.295 435.327 45.743C418.348 63.792 409.906 80.999 403.084 111.464C398.639 131.313 397.144 147.893 397.144 177.314C397.144 205.645 398.474 221.143 402.593 240.814C409.336 273.011 418.805 292.012 437.544 310.95C466.52 340.234 507.096 352.938 576.578 354.479C644.365 355.982 691.364 346.194 722.278 324.134C755.698 300.286 772.074 265.383 777.085 207.314C781.433 156.941 774.891 106.003 760.133 75.314C738.013 29.316 693.347 5.49299 620.551 0.864995C605.494 -0.0930051 571.658 -0.307005 560.578 0.484995ZM510.364 100.166C521.411 105.847 524.724 110.54 534.027 133.687C536.38 139.541 539.915 148.152 541.884 152.822C543.853 157.493 550.461 173.464 556.569 188.314C562.676 203.164 569.261 219.072 571.202 223.665C576.976 237.329 577.395 247.362 572.607 257.254C565.99 270.924 550.458 279.416 536.552 276.966C522.539 274.498 513.579 267.238 507.827 253.692C503.22 242.843 496.092 225.682 483.578 195.314C477.459 180.464 470.273 163.139 467.611 156.814C461.594 142.523 460.588 138.866 460.594 131.314C460.607 116.98 467.371 106.538 481.078 99.693C486.666 96.902 487.696 96.722 496.078 97.072C503.439 97.379 506.041 97.943 510.364 100.166ZM600.29 98.976C604.534 100.562 607.679 102.764 612.078 107.226C617.534 112.762 618.613 114.629 623.979 127.814C627.224 135.789 632.039 147.489 634.679 153.814C645.745 180.326 660.114 214.994 663.901 224.314C667.443 233.031 667.971 235.34 668.02 242.314C668.067 248.975 667.628 251.271 665.397 256.032C656.797 274.387 636.775 282.242 619.362 274.094C607.264 268.432 604.263 264.221 593.51 237.814C587.751 223.669 578.551 201.388 572.039 185.814C560.12 157.309 554.64 143.699 553.663 140.18C549.045 123.549 559.526 104.246 576.46 98.195C582.288 96.112 593.62 96.484 600.29 98.976ZM695.434 100.201C701.398 103.268 708.193 109.797 710.771 114.938C711.702 116.795 715.302 125.064 718.771 133.314L725.078 148.314V158.814C725.078 167.882 724.761 169.907 722.757 173.663C711.44 194.87 684.569 199.83 667.289 183.902C662.302 179.304 659.243 173.554 651.021 153.314C646.09 141.176 645.319 138.383 645.226 132.314C645.043 120.415 649.753 110.673 659.119 103.581C666.466 98.016 670.589 96.809 681.078 97.153C688.578 97.399 690.971 97.907 695.434 100.201ZM1.06811 421.189C-0.133886 423.024 -0.280886 424.445 0.424114 427.439C1.62511 432.545 17.5391 481.829 18.6861 483.996C19.1751 484.922 20.4591 485.959 21.5391 486.302C25.3181 487.501 27.1791 485.25 29.5551 476.61C35.4651 455.113 39.3191 442.594 39.7721 443.414C40.0461 443.909 40.8441 446.564 41.5461 449.314C43.5461 457.151 48.5281 474.829 50.2151 480.074C53.3221 489.737 59.1241 488.324 62.5521 477.068C63.6831 473.353 66.6931 463.789 69.2411 455.814C71.7881 447.839 75.0911 437.477 76.5801 432.787C79.4821 423.644 79.2711 420.486 75.6811 419.347C71.1201 417.899 69.9181 420.018 62.9321 441.829C59.2351 453.371 55.9281 462.814 55.5831 462.814C55.2381 462.814 54.3731 460.451 53.6591 457.564C50.4701 444.649 43.5401 421.473 42.4901 420.207C41.0111 418.426 38.1141 418.421 36.3391 420.196C35.5791 420.956 32.3431 430.856 29.1481 442.196C23.9871 460.512 21.5861 466.492 21.5741 461.064C21.5671 457.942 8.75311 420.541 7.39511 419.68C5.04812 418.191 2.65911 418.761 1.06811 421.189ZM110.226 420.65C109.313 421.66 106.833 426.497 104.717 431.4C102.6 436.303 99.7271 442.789 98.3331 445.814C83.1251 478.801 82.3811 480.619 83.1291 482.976C83.4511 483.988 84.5831 485.281 85.6461 485.85C88.8691 487.575 91.4381 485.232 95.0761 477.25L98.4641 469.814H113.578H128.692L132.005 477.083C136.207 486.306 137.794 487.763 141.423 485.732C142.883 484.915 144.208 483.355 144.367 482.264C144.689 480.054 119.475 423.462 116.901 420.618C114.812 418.31 112.334 418.322 110.226 420.65ZM233.019 420.233C231.17 421.586 231.078 423.122 231.078 452.814C231.078 482.506 231.17 484.042 233.019 485.395C235.46 487.179 236.695 487.18 239.137 485.396C240.929 484.087 241.116 482.28 241.578 461.807L242.078 439.634L252.578 453.822C270.398 477.901 277.111 486.293 278.816 486.621C279.717 486.795 281.383 486.009 282.517 484.875C284.506 482.886 284.578 481.777 284.578 453.037C284.578 427.704 284.346 422.927 283.021 421.037C281.136 418.345 278.461 418.181 276.253 420.621C274.86 422.159 274.577 425.741 274.348 444.702L274.078 466.975L262.622 451.645C256.322 443.213 248.706 432.939 245.7 428.814C238.019 418.277 236.812 417.46 233.019 420.233ZM472.149 420.385C470.789 421.746 470.578 426.088 470.578 452.73C470.578 481.273 470.711 483.624 472.407 485.159C474.642 487.182 475.635 487.223 478.137 485.397C479.904 484.107 480.123 482.313 480.578 465.423L481.078 446.867L490.078 465.975C499.478 485.932 501.599 488.701 505.202 485.711C506.128 484.943 511.053 475.764 516.145 465.314L525.404 446.314L525.491 464.909C525.573 482.38 525.703 483.617 527.646 485.376C529.536 487.086 529.946 487.118 532.396 485.743L535.078 484.238L535.342 453.194C535.596 423.379 535.528 422.079 533.632 420.363C529.718 416.821 527.41 418.815 521.853 430.535C507.611 460.574 504.578 467.13 504.578 467.88C504.578 470.381 502.328 469.461 501.068 466.444C496.625 455.811 479.266 421.129 477.853 420.064C475.645 418.398 474.046 418.488 472.149 420.385ZM555.233 420.643C553.8 422.226 553.578 425.378 553.578 444.105C553.578 463.51 553.791 466.307 555.641 471.252C559.591 481.811 569.694 487.455 583.101 486.594C594.248 485.879 601.277 481.133 605.749 471.302C607.822 466.744 608.049 464.548 608.383 445.814C608.61 433.001 608.354 424.293 607.698 422.592C606.347 419.087 602.229 417.915 599.606 420.289C597.877 421.853 597.686 423.929 597.396 444.337C597.043 469.154 596.937 469.562 589.588 474.564C585.101 477.618 576.851 477.657 571.5 474.65C564.826 470.899 564.175 468.307 563.759 443.814C563.458 426.094 563.119 422.006 561.831 420.564C559.816 418.308 557.319 418.338 555.233 420.643ZM637.918 420.181C628.373 423.322 624.038 429.293 624.783 438.272C625.561 447.65 629.708 450.925 648.888 457.306C662.596 461.867 665.578 463.862 665.578 468.473C665.578 476.549 651 479.29 635.426 474.143C626.288 471.123 624.274 471.55 623.768 476.618C623.487 479.43 623.907 479.946 628.268 482.147C643.711 489.941 667.248 487.557 673.418 477.573C676.411 472.73 677.169 466.163 675.261 461.597C673.029 456.256 667.127 452.56 654.228 448.426C647.941 446.411 641.286 443.744 639.438 442.499C636.571 440.567 636.078 439.653 636.078 436.274C636.078 432.748 636.462 432.122 639.578 430.566C644.562 428.076 654.865 428.265 663.197 431.001L669.857 433.187L671.718 430.89C674.047 428.013 674.061 426.561 671.778 424.495C666.731 419.927 646.514 417.351 637.918 420.181ZM695.801 420.371C693.585 421.922 693.578 422.03 693.578 452.814C693.578 483.598 693.585 483.706 695.801 485.257C698.738 487.315 700.171 487.221 702.578 484.814C704.489 482.903 704.578 481.481 704.578 452.814C704.578 424.147 704.489 422.725 702.578 420.814C700.171 418.407 698.738 418.313 695.801 420.371ZM745.578 419.749C730.583 424.327 721.251 437.01 721.251 452.814C721.251 466.554 727.069 476.55 738.752 482.884C744.624 486.068 745.724 486.314 754.078 486.314C762.381 486.314 763.554 486.056 769.218 482.983C779.546 477.381 783.46 471.696 779.629 467.865C778.501 466.737 777.18 465.814 776.693 465.814C776.206 465.814 773.38 467.812 770.413 470.255C763.847 475.661 760.982 476.82 754.263 476.792C744.218 476.749 736.051 470.512 733.121 460.647C731.066 453.727 731.175 449.965 733.621 443.429C738.786 429.625 753.875 424.727 766.691 432.694C772.13 436.074 775.204 436.384 776.873 433.719C780.728 427.565 766.925 418.702 753.793 418.9C750.65 418.947 746.953 419.329 745.578 419.749ZM844.578 419.749C835.542 422.508 827.231 429.742 822.865 438.65C820.494 443.487 820.088 445.555 820.083 452.814C820.079 459.943 820.509 462.233 822.748 467.01C825.971 473.886 832.333 480.429 839.089 483.814C843.362 485.955 845.442 486.314 853.578 486.314C861.994 486.314 863.739 485.989 868.872 483.469C872.059 481.904 876.222 479.022 878.122 477.065L881.578 473.507V462.816C881.578 448.634 881.78 448.814 865.806 448.814C854.606 448.814 853.58 448.974 852.21 450.929C851.395 452.092 850.983 453.779 851.293 454.679C852.414 457.928 854.884 458.814 862.817 458.814H870.673L870.376 465.064L870.078 471.314L864.649 474.064C854.541 479.183 843.471 477.18 836.433 468.957C823.154 453.444 833.614 428.814 853.481 428.814C859.219 428.814 862.61 429.916 867.747 433.45C872.388 436.642 875.699 436.282 877.045 432.439C877.968 429.805 877.726 429.281 874.168 426.205C866.976 419.989 853.456 417.039 844.578 419.749ZM986.902 420.194C977.248 423.351 969.143 431.043 965.616 440.395C962.492 448.681 963.04 460.15 966.942 468.125C970.412 475.217 977.942 482.053 985.376 484.858C992.82 487.667 1003.94 487.246 1010.43 483.909C1016.6 480.735 1022.74 474.757 1026.15 468.602C1028.87 463.687 1029.08 462.573 1029.06 452.814C1029.04 443.424 1028.76 441.781 1026.4 437.274C1023.16 431.089 1016 424.331 1009.75 421.563C1003.92 418.974 992.688 418.302 986.902 420.194ZM1045.62 420.58C1043.48 422.316 1043.44 422.729 1043.76 445.33L1044.08 468.314L1047 473.581C1052.1 482.784 1061.59 487.426 1073.58 486.575C1084.11 485.827 1091.79 480.765 1095.98 471.814C1097.88 467.745 1098.11 465.19 1098.4 445.132C1098.7 423.819 1098.63 422.869 1096.65 420.882C1094.05 418.285 1092.13 418.266 1089.58 420.814C1087.71 422.687 1087.58 424.159 1087.56 444.064C1087.55 464.228 1087.43 465.518 1085.3 469.314C1082.16 474.903 1077.66 477.011 1069.84 476.571C1062.73 476.171 1059.33 474.201 1056.43 468.797C1054.79 465.748 1054.58 462.867 1054.58 444.08C1054.58 424.147 1054.45 422.689 1052.58 420.814C1050.12 418.351 1048.44 418.295 1045.62 420.58ZM160.578 421.814C158.668 423.724 158.578 425.147 158.578 453.314C158.578 481.481 158.668 482.904 160.578 484.814C162.985 487.221 164.418 487.315 167.355 485.257C169.458 483.785 169.578 482.999 169.578 470.757V457.814H179.645H189.713L196.202 471.309C203.469 486.421 206.136 489.113 210.007 485.243C212.604 482.645 211.847 479.318 206.017 467.692C202.958 461.593 200.596 456.504 200.767 456.382C200.938 456.261 202.718 455.176 204.722 453.972C213.975 448.412 214.909 432.677 206.417 425.409C200.989 420.762 196.198 419.814 178.135 419.814C163.911 419.814 162.407 419.985 160.578 421.814ZM306.578 421.814C304.67 423.722 304.578 425.147 304.578 452.814C304.578 480.481 304.67 481.906 306.578 483.814C308.45 485.686 309.911 485.814 329.423 485.814C348.347 485.814 350.421 485.645 351.923 483.985C354.001 481.689 354.03 479.409 352.007 477.385C350.698 476.077 347.514 475.814 332.969 475.814H315.503L315.79 466.564L316.078 457.314L326.183 457.031C335.815 456.76 336.34 456.632 337.406 454.292C339.916 448.783 336.389 446.814 324.013 446.814H315.578V438.314V429.814H332.555H349.532L351.17 427.314C352.687 424.998 352.687 424.63 351.17 422.314L349.532 419.814H329.055C309.911 419.814 308.448 419.944 306.578 421.814ZM371.233 421.643C369.77 423.259 369.578 426.967 369.578 453.586C369.578 483.572 369.587 483.707 371.801 485.257C374.738 487.315 376.171 487.221 378.578 484.814C380.365 483.027 380.578 481.481 380.578 470.314V457.814H390.361H400.145L406.111 469.958C412.867 483.708 414.965 486.814 417.496 486.814C419.766 486.814 422.581 483.719 422.569 481.235C422.564 480.179 420.063 474.148 417.011 467.833C413.746 461.077 411.913 456.202 412.557 455.988C415.082 455.146 419.947 450.175 421.214 447.143C423.005 442.856 422.951 434.95 421.099 430.519C417.697 422.377 409.91 419.814 388.574 419.814C374.648 419.814 372.702 420.019 371.233 421.643ZM900.218 421.659C898.723 423.312 898.576 426.675 898.813 453.871L899.078 484.238L901.886 485.776C904.582 487.252 904.793 487.201 907.136 484.508C909.433 481.869 909.578 480.992 909.578 469.722V457.742L919.328 458.028L929.078 458.314L935.807 471.99C940.435 481.395 943.183 485.871 944.606 486.323C947.283 487.173 951.578 484.389 951.578 481.803C951.578 480.723 948.991 474.586 945.828 468.166C941.786 459.961 940.46 456.365 941.365 456.058C943.97 455.176 948.384 450.742 949.959 447.424C951.93 443.27 952.055 435.891 950.227 431.516C948.441 427.242 942.556 422.179 937.855 420.874C935.778 420.297 926.835 419.823 917.983 419.82C903.604 419.815 901.71 420.011 900.218 421.659ZM1118.14 421.4C1116.74 422.79 1116.58 426.754 1116.81 453.612L1117.08 484.238L1119.76 485.743C1122.21 487.118 1122.62 487.086 1124.51 485.376C1126.38 483.686 1126.58 482.363 1126.58 471.797V460.09L1140.99 459.601C1154.27 459.15 1155.75 458.906 1159.87 456.487C1166.12 452.827 1168.93 447.855 1169.01 440.314C1169.12 430.333 1164.05 423.428 1154.7 420.83C1152.71 420.277 1144.02 419.823 1135.4 419.82C1122.41 419.815 1119.45 420.086 1118.14 421.4ZM1008.43 432.097C1010.7 433.601 1013.8 436.707 1015.32 439C1017.85 442.827 1018.08 443.958 1018.08 452.814C1018.08 461.67 1017.85 462.801 1015.32 466.628C1011.28 472.731 1005.62 476.111 998.594 476.619C990.963 477.171 986.182 475.471 981.114 470.402C969.843 459.131 972.894 437.94 986.805 430.876C992.963 427.749 1002.69 428.299 1008.43 432.097ZM195.965 430.771C198.858 431.871 201.578 436.508 201.578 440.341C201.578 441.911 200.402 444.144 198.655 445.891L195.732 448.814H182.655H169.578V439.314V429.814H181.513C188.077 429.814 194.581 430.245 195.965 430.771ZM406.983 430.953C408.357 431.579 410.222 433.65 411.126 435.556C412.569 438.598 412.601 439.466 411.387 442.657C409.37 447.956 406.874 448.782 392.828 448.799L380.578 448.814V439.314V429.814H392.531C399.339 429.814 405.559 430.304 406.983 430.953ZM937.655 432.591C942.153 436.61 942.197 441.979 937.764 445.939C934.584 448.78 934.4 448.814 922.062 448.814H909.578V439.314V429.814H922.062C934.298 429.814 934.608 429.869 937.655 432.591ZM1155.08 432.228C1159.37 436.519 1159.58 442.816 1155.55 446.839C1153.78 448.611 1152.19 448.814 1140.08 448.814H1126.58V439.314V429.814H1139.62C1152.08 429.814 1152.78 429.923 1155.08 432.228ZM120.227 450.564L124.462 459.814H114.02C108.277 459.814 103.578 459.629 103.578 459.403C103.578 458.715 110.266 443.318 112.133 439.708L113.881 436.327L114.937 438.82C115.517 440.192 117.898 445.477 120.227 450.564Z" fill="#8F8F8F"></path>
</svg>
