<svg xmlns="http://www.w3.org/2000/svg" xmlns:xlink="http://www.w3.org/1999/xlink" width="298" zoomAndPan="magnify" viewBox="0 0 223.5 94.499997" height="126" preserveAspectRatio="xMidYMid meet" version="1.0"><defs><clipPath id="32cb7dbe90"><path d="M 0.339844 0 L 222.664062 0 L 222.664062 94.003906 L 0.339844 94.003906 Z M 0.339844 0 " clip-rule="nonzero"/></clipPath><clipPath id="8d10d9202d"><path d="M 94.078125 0.160156 L 189.539062 0.160156 L 189.539062 93.5 L 94.078125 93.5 Z M 94.078125 0.160156 " clip-rule="nonzero"/></clipPath><clipPath id="af10391aee"><path d="M 0.339844 0 L 103.753906 0 L 103.753906 93.339844 L 0.339844 93.339844 Z M 0.339844 0 " clip-rule="nonzero"/></clipPath><clipPath id="3a57bf4c22"><path d="M 180 0.160156 L 222 0.160156 L 222 94.003906 L 180 94.003906 Z M 180 0.160156 " clip-rule="nonzero"/></clipPath></defs><g clip-path="url(#32cb7dbe90)"><path fill="#ffffff" d="M 0.339844 0 L 222.664062 0 L 222.664062 94.003906 L 0.339844 94.003906 Z M 0.339844 0 " fill-opacity="1" fill-rule="nonzero"/></g><g clip-path="url(#8d10d9202d)"><path fill="#000000" d="M 189.210938 93.539062 L 174.933594 65.902344 C 174.246094 64.527344 173.035156 62.769531 171.214844 60.507812 C 170.019531 59.035156 169.007812 57.882812 168.140625 57.035156 C 168.28125 56.953125 168.402344 56.871094 168.542969 56.789062 C 172.226562 54.570312 175.175781 51.617188 177.28125 48.023438 C 179.425781 44.386719 180.515625 40.0625 180.515625 35.171875 C 180.515625 29.558594 179.101562 24.6875 176.289062 20.6875 C 174.976562 18.808594 163.832031 5.089844 154.914062 2.203125 C 150.667969 0.828125 144.882812 0.160156 137.199219 0.160156 L 94.386719 0.160156 L 94.386719 83.4375 L 104.496094 93.539062 L 135.945312 93.539062 L 135.945312 68.972656 L 143.769531 83.4375 L 153.882812 93.539062 Z M 189.210938 93.539062 " fill-opacity="1" fill-rule="nonzero"/></g><path fill="#ffffff" d="M 98.429688 79.398438 L 98.429688 4.203125 L 137.199219 4.203125 C 144.378906 4.203125 149.878906 4.808594 153.679688 6.039062 C 157.480469 7.273438 160.535156 9.554688 162.863281 12.890625 C 165.1875 16.222656 166.359375 20.285156 166.359375 25.070312 C 166.359375 29.234375 165.46875 32.851562 163.691406 35.859375 C 161.910156 38.890625 159.464844 41.335938 156.351562 43.214844 C 154.367188 44.40625 151.636719 45.394531 148.179688 46.183594 C 150.949219 47.113281 152.972656 48.023438 154.226562 48.953125 C 155.074219 49.578125 156.328125 50.890625 157.949219 52.910156 C 159.566406 54.933594 160.65625 56.488281 161.203125 57.578125 L 172.46875 79.359375 L 146.175781 79.359375 L 133.742188 56.386719 C 132.164062 53.417969 130.765625 51.476562 129.535156 50.589844 C 127.855469 49.417969 125.953125 48.851562 123.832031 48.851562 L 121.769531 48.851562 L 121.769531 79.359375 L 98.429688 79.359375 Z M 121.789062 34.667969 L 131.597656 34.667969 C 132.648438 34.667969 134.710938 34.324219 137.765625 33.636719 C 139.300781 33.335938 140.554688 32.546875 141.546875 31.273438 C 142.515625 30 143.003906 28.546875 143.003906 26.910156 C 143.003906 24.484375 142.234375 22.628906 140.695312 21.3125 C 139.160156 20.019531 136.269531 19.375 132.019531 19.375 L 121.808594 19.375 L 121.808594 34.667969 Z M 121.789062 34.667969 " fill-opacity="1" fill-rule="nonzero"/><g clip-path="url(#af10391aee)"><path fill="#000000" d="M 103.734375 93.28125 L 72.527344 10.179688 L 62.449219 0.0976562 L 31.566406 0.0976562 L 0.339844 83.199219 L 10.417969 93.28125 L 42.914062 93.28125 L 46.582031 80.882812 L 59.867188 80.882812 L 70.652344 93.28125 Z M 103.734375 93.28125 " fill-opacity="1" fill-rule="nonzero"/></g><path fill="#ffffff" d="M 59.808594 66.769531 L 33.480469 66.769531 L 29.832031 79.148438 L 6.164062 79.148438 L 34.367188 4.132812 L 59.648438 4.132812 L 87.828125 79.167969 L 63.558594 79.167969 Z M 54.988281 50.539062 L 46.703125 23.566406 L 38.519531 50.539062 Z M 54.988281 50.539062 " fill-opacity="1" fill-rule="nonzero"/><g clip-path="url(#3a57bf4c22)"><path fill="#000000" d="M 211.808594 0.160156 L 180.15625 0.160156 L 180.15625 83.910156 L 190.347656 94.070312 L 222 94.070312 L 222 10.320312 Z M 211.808594 0.160156 " fill-opacity="1" fill-rule="nonzero"/></g><path fill="#ffffff" d="M 184.230469 4.226562 L 207.730469 4.226562 L 207.730469 79.847656 L 184.230469 79.847656 Z M 184.230469 4.226562 " fill-opacity="1" fill-rule="nonzero"/></svg>